<?xml version="1.0" encoding="UTF-8" standalone="no"?>
<!-- Created with Inkscape (http://www.inkscape.org/) -->

<svg
   xmlns:dc="http://purl.org/dc/elements/1.1/"
   xmlns:cc="http://creativecommons.org/ns#"
   xmlns:rdf="http://www.w3.org/1999/02/22-rdf-syntax-ns#"
   xmlns:svg="http://www.w3.org/2000/svg"
   xmlns="http://www.w3.org/2000/svg"
   xmlns:sodipodi="http://sodipodi.sourceforge.net/DTD/sodipodi-0.dtd"
   xmlns:inkscape="http://www.inkscape.org/namespaces/inkscape"
   width="765"
   height="990"
   id="svg2"
   version="1.1"
   inkscape:version="0.48.3.1 r9886"
   sodipodi:docname="Exemplar_f.svg">
  <defs
     id="defs4">
    <marker
       inkscape:stockid="Arrow1Mend"
       orient="auto"
       refY="0.0"
       refX="0.0"
       id="Arrow1Mend"
       style="overflow:visible;">
      <path
         id="path3770"
         d="M 0.0,0.0 L 5.0,-5.0 L -12.5,0.0 L 5.0,5.0 L 0.0,0.0 z "
         style="fill-rule:evenodd;stroke:#000000;stroke-width:1.0pt;"
         transform="scale(0.4) rotate(180) translate(10,0)" />
    </marker>
  </defs>
  <sodipodi:namedview
     id="base"
     pagecolor="#ffffff"
     bordercolor="#666666"
     borderopacity="1.0"
     inkscape:pageopacity="0.0"
     inkscape:pageshadow="2"
     inkscape:zoom="1.0706329"
     inkscape:cx="318.79656"
     inkscape:cy="770.00771"
     inkscape:document-units="px"
     inkscape:current-layer="layer1"
     showgrid="true"
     inkscape:window-width="1301"
     inkscape:window-height="744"
     inkscape:window-x="65"
     inkscape:window-y="24"
     inkscape:window-maximized="1">
    <inkscape:grid
       type="xygrid"
       id="grid2985"
       empspacing="5"
       visible="true"
       enabled="true"
       snapvisiblegridlinesonly="true" />
  </sodipodi:namedview>
  <metadata
     id="metadata7">
    <rdf:RDF>
      <cc:Work
         rdf:about="">
        <dc:format>image/svg+xml</dc:format>
        <dc:type
           rdf:resource="http://purl.org/dc/dcmitype/StillImage" />
        <dc:title />
      </cc:Work>
    </rdf:RDF>
  </metadata>
  <g
     inkscape:label="Layer 1"
     inkscape:groupmode="layer"
     id="layer1"
     transform="translate(0,-62.362183)">
    <path
       style="fill:none;stroke:#ff0000;stroke-width:3;stroke-linecap:butt;stroke-linejoin:miter;stroke-opacity:1;stroke-miterlimit:4;stroke-dasharray:none"
       d="m 132,430 0,-22"
       id="path5148"
       inkscape:connector-curvature="0"
       transform="translate(0,62.362183)"
       sodipodi:nodetypes="cc" />
    <path
       style="fill:none;stroke:#ff0000;stroke-width:1px;stroke-linecap:butt;stroke-linejoin:miter;stroke-opacity:1"
       d="m 130,464.36218 c 25,-4 17,-13 36,-19"
       id="path5022-7-7"
       inkscape:connector-curvature="0"
       sodipodi:nodetypes="cc" />
    <path
       style="fill:none;stroke:#ff0000;stroke-width:1px;stroke-linecap:butt;stroke-linejoin:miter;stroke-opacity:1"
       d="m 130,470.36218 c 25,-4 17,-13 36,-19"
       id="path5022-7-7-2"
       inkscape:connector-curvature="0"
       sodipodi:nodetypes="cc" />
    <path
       style="fill:none;stroke:#000000;stroke-width:1px;stroke-linecap:butt;stroke-linejoin:miter;stroke-opacity:1"
       d="m 358,342.36218 0,55"
       id="path4799"
       inkscape:connector-curvature="0"
       sodipodi:nodetypes="cc" />
    <path
       style="fill:none;stroke:#000000;stroke-width:1px;stroke-linecap:butt;stroke-linejoin:miter;stroke-opacity:1"
       d="m 164,342.36218 0,20"
       id="path4555"
       inkscape:connector-curvature="0" />
    <path
       style="fill:none;stroke:#000000;stroke-width:1px;stroke-linecap:butt;stroke-linejoin:miter;stroke-opacity:1"
       d="m 350,320 0,-110"
       id="path4423"
       inkscape:connector-curvature="0"
       transform="translate(0,62.362183)"
       sodipodi:nodetypes="cc" />
    <path
       style="fill:none;stroke:#000000;stroke-width:2;stroke-linecap:butt;stroke-linejoin:miter;stroke-miterlimit:4;stroke-opacity:1;stroke-dasharray:none;marker-end:url(#Arrow1Mend)"
       d="m 70,290 480,0"
       id="path2987"
       inkscape:connector-curvature="0"
       transform="translate(0,62.362183)"
       sodipodi:nodetypes="cc" />
    <path
       style="fill:none;stroke:#000000;stroke-width:2;stroke-linecap:butt;stroke-linejoin:miter;stroke-miterlimit:4;stroke-opacity:1;stroke-dasharray:none;marker-end:none"
       d="m 130,490 0,-540 -20,0"
       id="path4201"
       inkscape:connector-curvature="0"
       transform="translate(0,62.362183)"
       sodipodi:nodetypes="cc" />
    <text
       xml:space="preserve"
       style="font-size:12px;font-style:normal;font-variant:normal;font-weight:normal;font-stretch:normal;text-align:start;line-height:125%;letter-spacing:0px;word-spacing:0px;writing-mode:lr-tb;text-anchor:start;fill:#000000;fill-opacity:1;stroke:none;font-family:Times New Roman;-inkscape-font-specification:'Times New Roman,'"
       x="563.86218"
       y="356.29041"
       id="text4391"
       sodipodi:linespacing="125%"><tspan
         sodipodi:role="line"
         id="tspan4393"
         x="563.86218"
         y="356.29041">X</tspan></text>
    <text
       xml:space="preserve"
       style="font-size:12px;font-style:normal;font-variant:normal;font-weight:normal;font-stretch:normal;text-align:start;line-height:125%;letter-spacing:0px;word-spacing:0px;writing-mode:lr-tb;text-anchor:start;fill:#000000;fill-opacity:1;stroke:none;font-family:Times New Roman;-inkscape-font-specification:'Times New Roman,'"
       x="124"
       y="-1.6378174"
       id="text4395"
       sodipodi:linespacing="125%"><tspan
         sodipodi:role="line"
         id="tspan4397"
         x="124"
         y="-1.6378174">Z</tspan></text>
    <path
       style="fill:none;stroke:#000000;stroke-width:1px;stroke-linecap:butt;stroke-linejoin:miter;stroke-opacity:1"
       d="m 110,432.36218 40,0"
       id="path4399"
       inkscape:connector-curvature="0"
       sodipodi:nodetypes="cc" />
    <path
       style="fill:none;stroke:#000000;stroke-width:1px;stroke-linecap:butt;stroke-linejoin:miter;stroke-opacity:1"
       d="m 110,320 240,0"
       id="path4401"
       inkscape:connector-curvature="0"
       transform="translate(0,62.362183)"
       sodipodi:nodetypes="cc" />
    <path
       style="fill:none;stroke:#000000;stroke-width:1px;stroke-linecap:butt;stroke-linejoin:miter;stroke-opacity:1"
       d="m 110,240 295,0"
       id="path4403"
       inkscape:connector-curvature="0"
       transform="translate(0,62.362183)"
       sodipodi:nodetypes="cc" />
    <path
       style="fill:none;stroke:#000000;stroke-width:1px;stroke-linecap:butt;stroke-linejoin:miter;stroke-opacity:1"
       d="m 110,232.36218 390,0"
       id="path4405"
       inkscape:connector-curvature="0" />
    <path
       style="fill:none;stroke:#000000;stroke-width:1px;stroke-linecap:butt;stroke-linejoin:miter;stroke-opacity:1"
       d="m 110,70 450,0"
       id="path4407"
       inkscape:connector-curvature="0"
       transform="translate(0,62.362183)"
       sodipodi:nodetypes="cc" />
    <path
       style="fill:none;stroke:#000000;stroke-width:1px;stroke-linecap:butt;stroke-linejoin:miter;stroke-opacity:1"
       d="m 141,432.36218 0,-90"
       id="path4409"
       inkscape:connector-curvature="0"
       sodipodi:nodetypes="cc" />
    <path
       style="fill:none;stroke:#000000;stroke-width:1px;stroke-linecap:butt;stroke-linejoin:miter;stroke-opacity:1"
       d="m 150,320 0,-40"
       id="path4411"
       inkscape:connector-curvature="0"
       transform="translate(0,62.362183)"
       sodipodi:nodetypes="cc" />
    <path
       style="fill:none;stroke:#000000;stroke-width:1px;stroke-linecap:butt;stroke-linejoin:miter;stroke-opacity:1"
       d="m 217,302.36218 0,60"
       id="path4413"
       inkscape:connector-curvature="0"
       sodipodi:nodetypes="cc" />
    <path
       style="fill:none;stroke:#000000;stroke-width:1px;stroke-linecap:butt;stroke-linejoin:miter;stroke-opacity:1"
       d="m 270,232.36218 0,130"
       id="path4415"
       inkscape:connector-curvature="0"
       sodipodi:nodetypes="cc" />
    <path
       style="fill:none;stroke:#000000;stroke-width:1px;stroke-linecap:butt;stroke-linejoin:miter;stroke-opacity:1"
       d="m 289,132.36218 0,230"
       id="path4417"
       inkscape:connector-curvature="0"
       sodipodi:nodetypes="cc" />
    <path
       style="fill:none;stroke:#000000;stroke-width:1px;stroke-linecap:butt;stroke-linejoin:miter;stroke-opacity:1"
       d="m 311,132.36218 0,230"
       id="path4419"
       inkscape:connector-curvature="0"
       sodipodi:nodetypes="cc" />
    <path
       style="fill:none;stroke:#000000;stroke-width:1px;stroke-linecap:butt;stroke-linejoin:miter;stroke-opacity:1"
       d="m 329,232.36218 0,130"
       id="path4421"
       inkscape:connector-curvature="0" />
    <path
       style="fill:none;stroke:#000000;stroke-width:1px;stroke-linecap:butt;stroke-linejoin:miter;stroke-opacity:1"
       d="m 395,302.36218 0,95"
       id="path4425"
       inkscape:connector-curvature="0"
       sodipodi:nodetypes="cc" />
    <path
       style="fill:none;stroke:#000000;stroke-width:1px;stroke-linecap:butt;stroke-linejoin:miter;stroke-opacity:1"
       d="m 483,232.36218 0,130"
       id="path4427"
       inkscape:connector-curvature="0"
       sodipodi:nodetypes="cc" />
    <path
       sodipodi:type="arc"
       style="opacity:0.99588478999999996;fill:#ff0000;fill-opacity:1;stroke:#ff0000;stroke-width:3;stroke-miterlimit:4;stroke-opacity:1;stroke-dasharray:none;stroke-dashoffset:0"
       id="path4429-7"
       sodipodi:cx="352.5"
       sodipodi:cy="212.5"
       sodipodi:rx="3.5"
       sodipodi:ry="3.5"
       d="m 356,212.5 c 0,1.933 -1.567,3.5 -3.5,3.5 -1.933,0 -3.5,-1.567 -3.5,-3.5 0,-1.933 1.567,-3.5 3.5,-3.5 1.933,0 3.5,1.567 3.5,3.5 z"
       transform="translate(-2.5,170.36218)" />
    <path
       style="fill:none;stroke:#ff0000;stroke-width:3;stroke-linecap:butt;stroke-linejoin:miter;stroke-opacity:1;stroke-miterlimit:4;stroke-dasharray:none"
       d="M 140,400 C 140,180 290,320 290,30"
       id="path4385"
       inkscape:connector-curvature="0"
       transform="translate(0,62.362183)"
       sodipodi:nodetypes="cc" />
    <path
       style="fill:none;stroke:#ff0000;stroke-width:3;stroke-linecap:butt;stroke-linejoin:miter;stroke-opacity:1;stroke-miterlimit:4;stroke-dasharray:none"
       d="m 310,30 c 0,140 40,180 40,180"
       id="path4387"
       inkscape:connector-curvature="0"
       transform="translate(0,62.362183)"
       sodipodi:nodetypes="cc" />
    <path
       style="fill:none;stroke:#ff0000;stroke-width:3;stroke-linecap:butt;stroke-linejoin:miter;stroke-opacity:1;stroke-miterlimit:4;stroke-dasharray:none"
       d="m 350,382.36218 c 0,-70 150,-170 210,-190"
       id="path4389"
       inkscape:connector-curvature="0"
       sodipodi:nodetypes="cc" />
    <g
       transform="matrix(2.7134328,0,0,4.696758,-173.27663,-1160.7264)"
       style="font-size:12px;font-style:normal;font-variant:normal;font-weight:normal;font-stretch:normal;text-align:start;line-height:125%;letter-spacing:0px;word-spacing:0px;writing-mode:lr-tb;text-anchor:start;fill:#000000;fill-opacity:1;stroke:none;font-family:Times New Roman;-inkscape-font-specification:'Times New Roman,'"
       id="text4449">
      <path
         d="m 104.39788,339.10785 0,0.20508 c -0.65235,-0.0899 -1.1836,-0.35547 -1.59375,-0.79688 -0.40625,-0.4375 -0.60938,-0.92383 -0.60937,-1.45898 -1e-5,-0.28125 0.0449,-0.60742 0.13476,-0.97852 0.0898,-0.375 0.13476,-0.66601 0.13477,-0.87304 -1e-5,-0.28125 -0.11915,-0.54297 -0.35743,-0.78516 -0.23437,-0.24609 -0.56054,-0.39648 -0.97851,-0.45117 l 0,-0.24024 c 0.41797,-0.0547 0.74414,-0.20312 0.97851,-0.44531 0.23828,-0.24217 0.35742,-0.50585 0.35743,-0.79101 -1e-5,-0.20702 -0.0449,-0.49608 -0.13477,-0.86718 -0.0898,-0.37109 -0.13477,-0.69922 -0.13476,-0.98438 -1e-5,-0.53124 0.20312,-1.01757 0.60937,-1.45898 0.41015,-0.4414 0.9414,-0.70507 1.59375,-0.79102 l 0,0.20508 c -0.45704,0.10938 -0.79297,0.28907 -1.00781,0.53906 -0.21094,0.2461 -0.31641,0.51759 -0.31641,0.81446 0,0.23047 0.043,0.53516 0.12891,0.91406 0.0898,0.375 0.13476,0.69532 0.13476,0.96094 0,0.39453 -0.14453,0.77734 -0.43359,1.14843 -0.28907,0.37109 -0.72071,0.6582 -1.29492,0.86132 0.5625,0.20704 0.99023,0.5 1.2832,0.87891 0.29687,0.37891 0.44531,0.76562 0.44531,1.16015 0,0.26563 -0.0449,0.58594 -0.13476,0.96094 -0.0859,0.37891 -0.12891,0.68359 -0.12891,0.91406 0,0.29688 0.10547,0.56836 0.31641,0.81446 0.21484,0.25 0.55077,0.43164 1.00781,0.54492"
         id="path4454"
         inkscape:connector-curvature="0" />
    </g>
    <g
       transform="matrix(2.7134336,0,0,2.7867866,-173.03332,-562.99799)"
       style="font-size:12px;font-style:normal;font-variant:normal;font-weight:normal;font-stretch:normal;text-align:start;line-height:125%;letter-spacing:0px;word-spacing:0px;writing-mode:lr-tb;text-anchor:start;fill:#000000;fill-opacity:1;stroke:none;font-family:Times New Roman;-inkscape-font-specification:'Times New Roman,'"
       id="text4449-1">
      <path
         d="m 104.39788,339.10785 0,0.20508 c -0.65235,-0.0899 -1.1836,-0.35547 -1.59375,-0.79688 -0.40625,-0.4375 -0.60938,-0.92383 -0.60937,-1.45898 -1e-5,-0.28125 0.0449,-0.60742 0.13476,-0.97852 0.0898,-0.375 0.13476,-0.66601 0.13477,-0.87304 -1e-5,-0.28125 -0.11915,-0.54297 -0.35743,-0.78516 -0.23437,-0.24609 -0.56054,-0.39648 -0.97851,-0.45117 l 0,-0.24024 c 0.41797,-0.0547 0.74414,-0.20312 0.97851,-0.44531 0.23828,-0.24218 0.35742,-0.50586 0.35743,-0.79102 -1e-5,-0.20702 -0.0449,-0.49608 -0.13477,-0.86718 -0.0898,-0.37109 -0.13477,-0.69922 -0.13476,-0.98438 -1e-5,-0.53124 0.20312,-1.01757 0.60937,-1.45898 0.41015,-0.4414 0.9414,-0.70507 1.59375,-0.79102 l 0,0.20508 c -0.45704,0.10938 -0.79297,0.28907 -1.00781,0.53906 -0.21094,0.2461 -0.31641,0.51759 -0.31641,0.81446 0,0.23047 0.043,0.53516 0.12891,0.91406 0.0898,0.375 0.13476,0.69532 0.13476,0.96094 0,0.39453 -0.14453,0.77734 -0.43359,1.14843 -0.28907,0.3711 -0.72071,0.65821 -1.29492,0.86133 0.5625,0.20704 0.99023,0.5 1.2832,0.87891 0.29687,0.37891 0.44531,0.76562 0.44531,1.16015 0,0.26563 -0.0449,0.58594 -0.13476,0.96094 -0.0859,0.37891 -0.12891,0.68359 -0.12891,0.91406 0,0.29688 0.10547,0.56836 0.31641,0.81446 0.21484,0.25 0.55077,0.43164 1.00781,0.54492"
         id="path4454-9"
         inkscape:connector-curvature="0" />
    </g>
    <g
       transform="matrix(2.7134336,0,0,4.6966133,-173.03332,-1240.6787)"
       style="font-size:12px;font-style:normal;font-variant:normal;font-weight:normal;font-stretch:normal;text-align:start;line-height:125%;letter-spacing:0px;word-spacing:0px;writing-mode:lr-tb;text-anchor:start;fill:#000000;fill-opacity:1;stroke:none;font-family:Times New Roman;-inkscape-font-specification:'Times New Roman,'"
       id="text4449-1-7">
      <path
         d="m 104.39788,339.10785 0,0.20508 c -0.65235,-0.0899 -1.1836,-0.35547 -1.59375,-0.79688 -0.40625,-0.4375 -0.60938,-0.92383 -0.60937,-1.45898 -1e-5,-0.28125 0.0449,-0.60742 0.13476,-0.97852 0.0898,-0.375 0.13476,-0.66601 0.13477,-0.87304 -1e-5,-0.28125 -0.11915,-0.54297 -0.35743,-0.78516 -0.23437,-0.24609 -0.56054,-0.39648 -0.97851,-0.45117 l 0,-0.24024 c 0.41797,-0.0547 0.74414,-0.20312 0.97851,-0.44531 0.23828,-0.24218 0.35742,-0.50586 0.35743,-0.79102 -1e-5,-0.20702 -0.0449,-0.49608 -0.13477,-0.86718 -0.0898,-0.37109 -0.13477,-0.69922 -0.13476,-0.98438 -1e-5,-0.53124 0.20312,-1.01757 0.60937,-1.45898 0.41015,-0.4414 0.9414,-0.70507 1.59375,-0.79102 l 0,0.20508 c -0.45704,0.10938 -0.79297,0.28907 -1.00781,0.53906 -0.21094,0.2461 -0.31641,0.51759 -0.31641,0.81446 0,0.23047 0.043,0.53516 0.12891,0.91406 0.0898,0.375 0.13476,0.69532 0.13476,0.96094 0,0.39453 -0.14453,0.77734 -0.43359,1.14843 -0.28907,0.3711 -0.72071,0.65821 -1.29492,0.86133 0.5625,0.20704 0.99023,0.5 1.2832,0.87891 0.29687,0.37891 0.44531,0.76562 0.44531,1.16015 0,0.26563 -0.0449,0.58594 -0.13476,0.96094 -0.0859,0.37891 -0.12891,0.68359 -0.12891,0.91406 0,0.29688 0.10547,0.56836 0.31641,0.81446 0.21484,0.25 0.55077,0.43164 1.00781,0.54492"
         id="path4454-9-3"
         inkscape:connector-curvature="0" />
    </g>
    <g
       transform="matrix(2.7134336,0,0,-6.5394837,-173.54209,2450.7364)"
       style="font-size:12px;font-style:normal;font-variant:normal;font-weight:normal;font-stretch:normal;text-align:start;line-height:125%;letter-spacing:0px;word-spacing:0px;writing-mode:lr-tb;text-anchor:start;fill:#000000;fill-opacity:1;stroke:none;font-family:Times New Roman;-inkscape-font-specification:'Times New Roman,'"
       id="text4449-1-4">
      <path
         d="m 104.39788,339.10785 0,0.20508 c -0.65235,-0.0899 -1.1836,-0.35547 -1.59375,-0.79688 -0.40625,-0.4375 -0.60938,-0.92383 -0.60937,-1.45898 -1e-5,-0.28125 0.0449,-0.60742 0.13476,-0.97852 0.0898,-0.375 0.13476,-0.66601 0.13477,-0.87304 -1e-5,-0.28125 -0.11915,-0.54297 -0.35743,-0.78516 -0.23437,-0.24609 -0.56054,-0.39648 -0.97851,-0.45117 l 0,-0.24024 c 0.41797,-0.0547 0.74414,-0.20312 0.97851,-0.44531 0.23828,-0.24218 0.35742,-0.50586 0.35743,-0.79102 -1e-5,-0.20702 -0.0449,-0.49608 -0.13477,-0.86718 -0.0898,-0.37109 -0.13477,-0.69922 -0.13476,-0.98438 -1e-5,-0.53124 0.20312,-1.01757 0.60937,-1.45898 0.41015,-0.4414 0.9414,-0.70507 1.59375,-0.79102 l 0,0.20508 c -0.45704,0.10938 -0.79297,0.28907 -1.00781,0.53906 -0.21094,0.2461 -0.31641,0.51759 -0.31641,0.81446 0,0.23047 0.043,0.53516 0.12891,0.91406 0.0898,0.375 0.13476,0.69532 0.13476,0.96094 0,0.39453 -0.14453,0.77734 -0.43359,1.14843 -0.28907,0.3711 -0.72071,0.65821 -1.29492,0.86133 0.5625,0.20704 0.99023,0.5 1.2832,0.87891 0.29687,0.37891 0.44531,0.76562 0.44531,1.16015 0,0.26563 -0.0449,0.58594 -0.13476,0.96094 -0.0859,0.37891 -0.12891,0.68359 -0.12891,0.91406 0,0.29688 0.10547,0.56836 0.31641,0.81446 0.21484,0.25 0.55077,0.43164 1.00781,0.54492"
         id="path4454-9-31"
         inkscape:connector-curvature="0" />
    </g>
    <g
       transform="matrix(2.7134336,0,0,9.3498582,-172.95218,-2939.4435)"
       style="font-size:12px;font-style:normal;font-variant:normal;font-weight:normal;font-stretch:normal;text-align:start;line-height:125%;letter-spacing:0px;word-spacing:0px;writing-mode:lr-tb;text-anchor:start;fill:#000000;fill-opacity:1;stroke:none;font-family:Times New Roman;-inkscape-font-specification:'Times New Roman,'"
       id="text4449-1-2">
      <path
         d="m 104.39788,339.10785 0,0.20508 c -0.65235,-0.0899 -1.1836,-0.35547 -1.59375,-0.79688 -0.40625,-0.4375 -0.60938,-0.92383 -0.60937,-1.45898 -1e-5,-0.28125 0.0449,-0.60742 0.13476,-0.97852 0.0898,-0.375 0.13476,-0.66601 0.13477,-0.87304 -1e-5,-0.28125 -0.11915,-0.54297 -0.35743,-0.78516 -0.23437,-0.24609 -0.56054,-0.39648 -0.97851,-0.45117 l 0,-0.24024 c 0.41797,-0.0547 0.74414,-0.20312 0.97851,-0.44531 0.23828,-0.24218 0.35742,-0.50586 0.35743,-0.79102 -1e-5,-0.20702 -0.0449,-0.49608 -0.13477,-0.86718 -0.0898,-0.37109 -0.13477,-0.69922 -0.13476,-0.98438 -1e-5,-0.53124 0.20312,-1.01757 0.60937,-1.45898 0.41015,-0.4414 0.9414,-0.70507 1.59375,-0.79102 l 0,0.20508 c -0.45704,0.10938 -0.79297,0.28907 -1.00781,0.53906 -0.21094,0.2461 -0.31641,0.51759 -0.31641,0.81446 0,0.23047 0.043,0.53516 0.12891,0.91406 0.0898,0.375 0.13476,0.69532 0.13476,0.96094 0,0.39453 -0.14453,0.77734 -0.43359,1.14843 -0.28907,0.3711 -0.72071,0.65821 -1.29492,0.86133 0.5625,0.20704 0.99023,0.5 1.2832,0.87891 0.29687,0.37891 0.44531,0.76562 0.44531,1.16015 0,0.26563 -0.0449,0.58594 -0.13476,0.96094 -0.0859,0.37891 -0.12891,0.68359 -0.12891,0.91406 0,0.29688 0.10547,0.56836 0.31641,0.81446 0.21484,0.25 0.55077,0.43164 1.00781,0.54492"
         id="path4454-9-9"
         inkscape:connector-curvature="0" />
    </g>
    <text
       xml:space="preserve"
       style="font-size:12px;font-style:normal;font-variant:normal;font-weight:normal;font-stretch:normal;text-align:start;line-height:125%;letter-spacing:0px;word-spacing:0px;writing-mode:lr-tb;text-anchor:start;fill:#000000;fill-opacity:1;stroke:none;font-family:Times New Roman;-inkscape-font-specification:'Times New Roman,'"
       x="88.700333"
       y="409.18298"
       id="text4535"
       sodipodi:linespacing="125%"><tspan
         sodipodi:role="line"
         id="tspan4537"
         x="88.700333"
         y="409.18298">1</tspan></text>
    <text
       xml:space="preserve"
       style="font-size:12px;font-style:normal;font-variant:normal;font-weight:normal;font-stretch:normal;text-align:start;line-height:125%;letter-spacing:0px;word-spacing:0px;writing-mode:lr-tb;text-anchor:start;fill:#000000;fill-opacity:1;stroke:none;font-family:Times New Roman;-inkscape-font-specification:'Times New Roman,'"
       x="90.044525"
       y="370.18515"
       id="text4539"
       sodipodi:linespacing="125%"><tspan
         sodipodi:role="line"
         id="tspan4541"
         x="90.044525"
         y="370.18515">2</tspan></text>
    <text
       xml:space="preserve"
       style="font-size:12px;font-style:normal;font-variant:normal;font-weight:normal;font-stretch:normal;text-align:start;line-height:125%;letter-spacing:0px;word-spacing:0px;writing-mode:lr-tb;text-anchor:start;fill:#000000;fill-opacity:1;stroke:none;font-family:Times New Roman;-inkscape-font-specification:'Times New Roman,'"
       x="90.077095"
       y="331.21988"
       id="text4543"
       sodipodi:linespacing="125%"><tspan
         sodipodi:role="line"
         id="tspan4545"
         x="90.077095"
         y="331.21988">3</tspan></text>
    <text
       xml:space="preserve"
       style="font-size:12px;font-style:normal;font-variant:normal;font-weight:normal;font-stretch:normal;text-align:start;line-height:125%;letter-spacing:0px;word-spacing:0px;writing-mode:lr-tb;text-anchor:start;fill:#000000;fill-opacity:1;stroke:none;font-family:Times New Roman;-inkscape-font-specification:'Times New Roman,'"
       x="90.060814"
       y="270.73129"
       id="text4547"
       sodipodi:linespacing="125%"><tspan
         sodipodi:role="line"
         id="tspan4549"
         x="90.060814"
         y="270.73129">4</tspan></text>
    <text
       xml:space="preserve"
       style="font-size:12px;font-style:normal;font-variant:normal;font-weight:normal;font-stretch:normal;text-align:start;line-height:125%;letter-spacing:0px;word-spacing:0px;writing-mode:lr-tb;text-anchor:start;fill:#000000;fill-opacity:1;stroke:none;font-family:Times New Roman;-inkscape-font-specification:'Times New Roman,'"
       x="89.404999"
       y="186.04724"
       id="text4551"
       sodipodi:linespacing="125%"><tspan
         sodipodi:role="line"
         id="tspan4553"
         x="89.404999"
         y="186.04724">5</tspan></text>
    <g
       transform="matrix(0,2.7134328,-0.8592022,0,432.67839,59.332218)"
       style="font-size:12px;font-style:normal;font-variant:normal;font-weight:normal;font-stretch:normal;text-align:start;line-height:125%;letter-spacing:0px;word-spacing:0px;writing-mode:lr-tb;text-anchor:start;fill:#000000;fill-opacity:1;stroke:none;font-family:Times New Roman;-inkscape-font-specification:'Times New Roman,'"
       id="text4449-4">
      <path
         d="m 104.39788,339.10785 0,0.20508 c -0.65235,-0.0899 -1.1836,-0.35547 -1.59375,-0.79688 -0.40625,-0.4375 -0.60938,-0.92383 -0.60937,-1.45898 -1e-5,-0.28125 0.0449,-0.60742 0.13476,-0.97852 0.0898,-0.375 0.13476,-0.66601 0.13477,-0.87304 -1e-5,-0.28125 -0.11915,-0.54297 -0.35743,-0.78516 -0.23437,-0.24609 -0.56054,-0.39648 -0.97851,-0.45117 l 0,-0.24024 c 0.41797,-0.0547 0.74414,-0.20312 0.97851,-0.44531 0.23828,-0.24217 0.35742,-0.50585 0.35743,-0.79101 -1e-5,-0.20702 -0.0449,-0.49608 -0.13477,-0.86718 -0.0898,-0.37109 -0.13477,-0.69922 -0.13476,-0.98438 -1e-5,-0.53124 0.20312,-1.01757 0.60937,-1.45898 0.41015,-0.4414 0.9414,-0.70507 1.59375,-0.79102 l 0,0.20508 c -0.45704,0.10938 -0.79297,0.28907 -1.00781,0.53906 -0.21094,0.2461 -0.31641,0.51759 -0.31641,0.81446 0,0.23047 0.043,0.53516 0.12891,0.91406 0.0898,0.375 0.13476,0.69532 0.13476,0.96094 0,0.39453 -0.14453,0.77734 -0.43359,1.14843 -0.28907,0.37109 -0.72071,0.6582 -1.29492,0.86132 0.5625,0.20704 0.99023,0.5 1.2832,0.87891 0.29687,0.37891 0.44531,0.76562 0.44531,1.16015 0,0.26563 -0.0449,0.58594 -0.13476,0.96094 -0.0859,0.37891 -0.12891,0.68359 -0.12891,0.91406 0,0.29688 0.10547,0.56836 0.31641,0.81446 0.21484,0.25 0.55077,0.43164 1.00781,0.54492"
         id="path4454-2"
         inkscape:connector-curvature="0" />
    </g>
    <g
       transform="matrix(0,2.7134328,-1.2286438,0,567.44752,59.1398)"
       style="font-size:12px;font-style:normal;font-variant:normal;font-weight:normal;font-stretch:normal;text-align:start;line-height:125%;letter-spacing:0px;word-spacing:0px;writing-mode:lr-tb;text-anchor:start;fill:#000000;fill-opacity:1;stroke:none;font-family:Times New Roman;-inkscape-font-specification:'Times New Roman,'"
       id="text4449-4-3">
      <path
         d="m 104.39788,339.10785 0,0.20508 c -0.65235,-0.0899 -1.1836,-0.35547 -1.59375,-0.79688 -0.40625,-0.4375 -0.60938,-0.92383 -0.60937,-1.45898 -1e-5,-0.28125 0.0449,-0.60742 0.13476,-0.97852 0.0898,-0.375 0.13476,-0.66601 0.13477,-0.87304 -1e-5,-0.28125 -0.11915,-0.54297 -0.35743,-0.78516 -0.23437,-0.24609 -0.56054,-0.39648 -0.97851,-0.45117 l 0,-0.24024 c 0.41797,-0.0547 0.74414,-0.20312 0.97851,-0.44531 0.23828,-0.24217 0.35742,-0.50585 0.35743,-0.79101 -1e-5,-0.20702 -0.0449,-0.49608 -0.13477,-0.86718 -0.0898,-0.37109 -0.13477,-0.69922 -0.13476,-0.98438 -1e-5,-0.53124 0.20312,-1.01757 0.60937,-1.45898 0.41015,-0.4414 0.9414,-0.70507 1.59375,-0.79102 l 0,0.20508 c -0.45704,0.10938 -0.79297,0.28907 -1.00781,0.53906 -0.21094,0.2461 -0.31641,0.51759 -0.31641,0.81446 0,0.23047 0.043,0.53516 0.12891,0.91406 0.0898,0.375 0.13476,0.69532 0.13476,0.96094 0,0.39453 -0.14453,0.77734 -0.43359,1.14843 -0.28907,0.37109 -0.72071,0.6582 -1.29492,0.86132 0.5625,0.20704 0.99023,0.5 1.2832,0.87891 0.29687,0.37891 0.44531,0.76562 0.44531,1.16015 0,0.26563 -0.0449,0.58594 -0.13476,0.96094 -0.0859,0.37891 -0.12891,0.68359 -0.12891,0.91406 0,0.29688 0.10547,0.56836 0.31641,0.81446 0.21484,0.25 0.55077,0.43164 1.00781,0.54492"
         id="path4454-2-3"
         inkscape:connector-curvature="0" />
    </g>
    <g
       transform="matrix(0,-2.7134328,-4.9204004,0,1832.7076,645.6608)"
       style="font-size:12px;font-style:normal;font-variant:normal;font-weight:normal;font-stretch:normal;text-align:start;line-height:125%;letter-spacing:0px;word-spacing:0px;writing-mode:lr-tb;text-anchor:start;fill:#000000;fill-opacity:1;stroke:none;font-family:Times New Roman;-inkscape-font-specification:'Times New Roman,'"
       id="text4449-4-3-9">
      <path
         d="m 104.39788,339.10785 0,0.20508 c -0.65235,-0.0899 -1.1836,-0.35547 -1.59375,-0.79688 -0.40625,-0.4375 -0.60938,-0.92383 -0.60937,-1.45898 -1e-5,-0.28125 0.0449,-0.60742 0.13476,-0.97852 0.0898,-0.375 0.13476,-0.66601 0.13477,-0.87304 -1e-5,-0.28125 -0.11915,-0.54297 -0.35743,-0.78516 -0.23437,-0.24609 -0.56054,-0.39648 -0.97851,-0.45117 l 0,-0.24024 c 0.41797,-0.0547 0.74414,-0.20312 0.97851,-0.44531 0.23828,-0.24217 0.35742,-0.50585 0.35743,-0.79101 -1e-5,-0.20702 -0.0449,-0.49608 -0.13477,-0.86718 -0.0898,-0.37109 -0.13477,-0.69922 -0.13476,-0.98438 -1e-5,-0.53124 0.20312,-1.01757 0.60937,-1.45898 0.41015,-0.4414 0.9414,-0.70507 1.59375,-0.79102 l 0,0.20508 c -0.45704,0.10938 -0.79297,0.28907 -1.00781,0.53906 -0.21094,0.2461 -0.31641,0.51759 -0.31641,0.81446 0,0.23047 0.043,0.53516 0.12891,0.91406 0.0898,0.375 0.13476,0.69532 0.13476,0.96094 0,0.39453 -0.14453,0.77734 -0.43359,1.14843 -0.28907,0.37109 -0.72071,0.6582 -1.29492,0.86132 0.5625,0.20704 0.99023,0.5 1.2832,0.87891 0.29687,0.37891 0.44531,0.76562 0.44531,1.16015 0,0.26563 -0.0449,0.58594 -0.13476,0.96094 -0.0859,0.37891 -0.12891,0.68359 -0.12891,0.91406 0,0.29688 0.10547,0.56836 0.31641,0.81446 0.21484,0.25 0.55077,0.43164 1.00781,0.54492"
         id="path4454-2-3-4"
         inkscape:connector-curvature="0" />
    </g>
    <g
       transform="matrix(0,-2.7134328,-4.9204004,0,1886.7076,645.6608)"
       style="font-size:12px;font-style:normal;font-variant:normal;font-weight:normal;font-stretch:normal;text-align:start;line-height:125%;letter-spacing:0px;word-spacing:0px;writing-mode:lr-tb;text-anchor:start;fill:#000000;fill-opacity:1;stroke:none;font-family:Times New Roman;-inkscape-font-specification:'Times New Roman,'"
       id="text4449-4-3-9-1">
      <path
         d="m 104.39788,339.10785 0,0.20508 c -0.65235,-0.0899 -1.1836,-0.35547 -1.59375,-0.79688 -0.40625,-0.4375 -0.60938,-0.92383 -0.60937,-1.45898 -1e-5,-0.28125 0.0449,-0.60742 0.13476,-0.97852 0.0898,-0.375 0.13476,-0.66601 0.13477,-0.87304 -1e-5,-0.28125 -0.11915,-0.54297 -0.35743,-0.78516 -0.23437,-0.24609 -0.56054,-0.39648 -0.97851,-0.45117 l 0,-0.24024 c 0.41797,-0.0547 0.74414,-0.20312 0.97851,-0.44531 0.23828,-0.24217 0.35742,-0.50585 0.35743,-0.79101 -1e-5,-0.20702 -0.0449,-0.49608 -0.13477,-0.86718 -0.0898,-0.37109 -0.13477,-0.69922 -0.13476,-0.98438 -1e-5,-0.53124 0.20312,-1.01757 0.60937,-1.45898 0.41015,-0.4414 0.9414,-0.70507 1.59375,-0.79102 l 0,0.20508 c -0.45704,0.10938 -0.79297,0.28907 -1.00781,0.53906 -0.21094,0.2461 -0.31641,0.51759 -0.31641,0.81446 0,0.23047 0.043,0.53516 0.12891,0.91406 0.0898,0.375 0.13476,0.69532 0.13476,0.96094 0,0.39453 -0.14453,0.77734 -0.43359,1.14843 -0.28907,0.37109 -0.72071,0.6582 -1.29492,0.86132 0.5625,0.20704 0.99023,0.5 1.2832,0.87891 0.29687,0.37891 0.44531,0.76562 0.44531,1.16015 0,0.26563 -0.0449,0.58594 -0.13476,0.96094 -0.0859,0.37891 -0.12891,0.68359 -0.12891,0.91406 0,0.29688 0.10547,0.56836 0.31641,0.81446 0.21484,0.25 0.55077,0.43164 1.00781,0.54492"
         id="path4454-2-3-4-5"
         inkscape:connector-curvature="0" />
    </g>
    <g
       transform="matrix(0,-2.7134328,-1.7974974,0,879.70393,645.39215)"
       style="font-size:12px;font-style:normal;font-variant:normal;font-weight:normal;font-stretch:normal;text-align:start;line-height:125%;letter-spacing:0px;word-spacing:0px;writing-mode:lr-tb;text-anchor:start;fill:#000000;fill-opacity:1;stroke:none;font-family:Times New Roman;-inkscape-font-specification:'Times New Roman,'"
       id="text4449-4-3-9-1-8">
      <path
         d="m 104.39788,339.10785 0,0.20508 c -0.65235,-0.0899 -1.1836,-0.35547 -1.59375,-0.79688 -0.40625,-0.4375 -0.60938,-0.92383 -0.60937,-1.45898 -1e-5,-0.28125 0.0449,-0.60742 0.13476,-0.97852 0.0898,-0.375 0.13476,-0.66601 0.13477,-0.87304 -1e-5,-0.28125 -0.11915,-0.54297 -0.35743,-0.78516 -0.23437,-0.24609 -0.56054,-0.39648 -0.97851,-0.45117 l 0,-0.24024 c 0.41797,-0.0547 0.74414,-0.20312 0.97851,-0.44531 0.23828,-0.24217 0.35742,-0.50585 0.35743,-0.79101 -1e-5,-0.20702 -0.0449,-0.49608 -0.13477,-0.86718 -0.0898,-0.37109 -0.13477,-0.69922 -0.13476,-0.98438 -1e-5,-0.53124 0.20312,-1.01757 0.60937,-1.45898 0.41015,-0.4414 0.9414,-0.70507 1.59375,-0.79102 l 0,0.20508 c -0.45704,0.10938 -0.79297,0.28907 -1.00781,0.53906 -0.21094,0.2461 -0.31641,0.51759 -0.31641,0.81446 0,0.23047 0.043,0.53516 0.12891,0.91406 0.0898,0.375 0.13476,0.69532 0.13476,0.96094 0,0.39453 -0.14453,0.77734 -0.43359,1.14843 -0.28907,0.37109 -0.72071,0.6582 -1.29492,0.86132 0.5625,0.20704 0.99023,0.5 1.2832,0.87891 0.29687,0.37891 0.44531,0.76562 0.44531,1.16015 0,0.26563 -0.0449,0.58594 -0.13476,0.96094 -0.0859,0.37891 -0.12891,0.68359 -0.12891,0.91406 0,0.29688 0.10547,0.56836 0.31641,0.81446 0.21484,0.25 0.55077,0.43164 1.00781,0.54492"
         id="path4454-2-3-4-5-9"
         inkscape:connector-curvature="0" />
    </g>
    <g
       transform="matrix(0,-2.7134328,-2.0984871,0,1000.7844,645.39215)"
       style="font-size:12px;font-style:normal;font-variant:normal;font-weight:normal;font-stretch:normal;text-align:start;line-height:125%;letter-spacing:0px;word-spacing:0px;writing-mode:lr-tb;text-anchor:start;fill:#000000;fill-opacity:1;stroke:none;font-family:Times New Roman;-inkscape-font-specification:'Times New Roman,'"
       id="text4449-4-3-9-1-8-5">
      <path
         d="m 104.39788,339.10785 0,0.20508 c -0.65235,-0.0899 -1.1836,-0.35547 -1.59375,-0.79688 -0.40625,-0.4375 -0.60938,-0.92383 -0.60937,-1.45898 -1e-5,-0.28125 0.0449,-0.60742 0.13476,-0.97852 0.0898,-0.375 0.13476,-0.66601 0.13477,-0.87304 -1e-5,-0.28125 -0.11915,-0.54297 -0.35743,-0.78516 -0.23437,-0.24609 -0.56054,-0.39648 -0.97851,-0.45117 l 0,-0.24024 c 0.41797,-0.0547 0.74414,-0.20312 0.97851,-0.44531 0.23828,-0.24217 0.35742,-0.50585 0.35743,-0.79101 -1e-5,-0.20702 -0.0449,-0.49608 -0.13477,-0.86718 -0.0898,-0.37109 -0.13477,-0.69922 -0.13476,-0.98438 -1e-5,-0.53124 0.20312,-1.01757 0.60937,-1.45898 0.41015,-0.4414 0.9414,-0.70507 1.59375,-0.79102 l 0,0.20508 c -0.45704,0.10938 -0.79297,0.28907 -1.00781,0.53906 -0.21094,0.2461 -0.31641,0.51759 -0.31641,0.81446 0,0.23047 0.043,0.53516 0.12891,0.91406 0.0898,0.375 0.13476,0.69532 0.13476,0.96094 0,0.39453 -0.14453,0.77734 -0.43359,1.14843 -0.28907,0.37109 -0.72071,0.6582 -1.29492,0.86132 0.5625,0.20704 0.99023,0.5 1.2832,0.87891 0.29687,0.37891 0.44531,0.76562 0.44531,1.16015 0,0.26563 -0.0449,0.58594 -0.13476,0.96094 -0.0859,0.37891 -0.12891,0.68359 -0.12891,0.91406 0,0.29688 0.10547,0.56836 0.31641,0.81446 0.21484,0.25 0.55077,0.43164 1.00781,0.54492"
         id="path4454-2-3-4-5-9-5"
         inkscape:connector-curvature="0" />
    </g>
    <g
       transform="matrix(0,-2.7134328,-1.7088701,0,890.52941,645.39215)"
       style="font-size:12px;font-style:normal;font-variant:normal;font-weight:normal;font-stretch:normal;text-align:start;line-height:125%;letter-spacing:0px;word-spacing:0px;writing-mode:lr-tb;text-anchor:start;fill:#000000;fill-opacity:1;stroke:none;font-family:Times New Roman;-inkscape-font-specification:'Times New Roman,'"
       id="text4449-4-3-9-1-8-5-9">
      <path
         d="m 104.39788,339.10785 0,0.20508 c -0.65235,-0.0899 -1.1836,-0.35547 -1.59375,-0.79688 -0.40625,-0.4375 -0.60938,-0.92383 -0.60937,-1.45898 -1e-5,-0.28125 0.0449,-0.60742 0.13476,-0.97852 0.0898,-0.375 0.13476,-0.66601 0.13477,-0.87304 -1e-5,-0.28125 -0.11915,-0.54297 -0.35743,-0.78516 -0.23437,-0.24609 -0.56054,-0.39648 -0.97851,-0.45117 l 0,-0.24024 c 0.41797,-0.0547 0.74414,-0.20312 0.97851,-0.44531 0.23828,-0.24217 0.35742,-0.50585 0.35743,-0.79101 -1e-5,-0.20702 -0.0449,-0.49608 -0.13477,-0.86718 -0.0898,-0.37109 -0.13477,-0.69922 -0.13476,-0.98438 -1e-5,-0.53124 0.20312,-1.01757 0.60937,-1.45898 0.41015,-0.4414 0.9414,-0.70507 1.59375,-0.79102 l 0,0.20508 c -0.45704,0.10938 -0.79297,0.28907 -1.00781,0.53906 -0.21094,0.2461 -0.31641,0.51759 -0.31641,0.81446 0,0.23047 0.043,0.53516 0.12891,0.91406 0.0898,0.375 0.13476,0.69532 0.13476,0.96094 0,0.39453 -0.14453,0.77734 -0.43359,1.14843 -0.28907,0.37109 -0.72071,0.6582 -1.29492,0.86132 0.5625,0.20704 0.99023,0.5 1.2832,0.87891 0.29687,0.37891 0.44531,0.76562 0.44531,1.16015 0,0.26563 -0.0449,0.58594 -0.13476,0.96094 -0.0859,0.37891 -0.12891,0.68359 -0.12891,0.91406 0,0.29688 0.10547,0.56836 0.31641,0.81446 0.21484,0.25 0.55077,0.43164 1.00781,0.54492"
         id="path4454-2-3-4-5-9-5-6"
         inkscape:connector-curvature="0" />
    </g>
    <g
       transform="matrix(0,-2.7134328,-1.9754456,0,999.28128,645.37952)"
       style="font-size:12px;font-style:normal;font-variant:normal;font-weight:normal;font-stretch:normal;text-align:start;line-height:125%;letter-spacing:0px;word-spacing:0px;writing-mode:lr-tb;text-anchor:start;fill:#000000;fill-opacity:1;stroke:none;font-family:Times New Roman;-inkscape-font-specification:'Times New Roman,'"
       id="text4449-4-3-9-1-8-5-9-9">
      <path
         d="m 104.39788,339.10785 0,0.20508 c -0.65235,-0.0899 -1.1836,-0.35547 -1.59375,-0.79688 -0.40625,-0.4375 -0.60938,-0.92383 -0.60937,-1.45898 -1e-5,-0.28125 0.0449,-0.60742 0.13476,-0.97852 0.0898,-0.375 0.13476,-0.66601 0.13477,-0.87304 -1e-5,-0.28125 -0.11915,-0.54297 -0.35743,-0.78516 -0.23437,-0.24609 -0.56054,-0.39648 -0.97851,-0.45117 l 0,-0.24024 c 0.41797,-0.0547 0.74414,-0.20312 0.97851,-0.44531 0.23828,-0.24217 0.35742,-0.50585 0.35743,-0.79101 -1e-5,-0.20702 -0.0449,-0.49608 -0.13477,-0.86718 -0.0898,-0.37109 -0.13477,-0.69922 -0.13476,-0.98438 -1e-5,-0.53124 0.20312,-1.01757 0.60937,-1.45898 0.41015,-0.4414 0.9414,-0.70507 1.59375,-0.79102 l 0,0.20508 c -0.45704,0.10938 -0.79297,0.28907 -1.00781,0.53906 -0.21094,0.2461 -0.31641,0.51759 -0.31641,0.81446 0,0.23047 0.043,0.53516 0.12891,0.91406 0.0898,0.375 0.13476,0.69532 0.13476,0.96094 0,0.39453 -0.14453,0.77734 -0.43359,1.14843 -0.28907,0.37109 -0.72071,0.6582 -1.29492,0.86132 0.5625,0.20704 0.99023,0.5 1.2832,0.87891 0.29687,0.37891 0.44531,0.76562 0.44531,1.16015 0,0.26563 -0.0449,0.58594 -0.13476,0.96094 -0.0859,0.37891 -0.12891,0.68359 -0.12891,0.91406 0,0.29688 0.10547,0.56836 0.31641,0.81446 0.21484,0.25 0.55077,0.43164 1.00781,0.54492"
         id="path4454-2-3-4-5-9-5-6-2"
         inkscape:connector-curvature="0" />
    </g>
    <g
       transform="matrix(0,-2.7134328,-3.5410191,0,1558.64,680.6608)"
       style="font-size:12px;font-style:normal;font-variant:normal;font-weight:normal;font-stretch:normal;text-align:start;line-height:125%;letter-spacing:0px;word-spacing:0px;writing-mode:lr-tb;text-anchor:start;fill:#000000;fill-opacity:1;stroke:none;font-family:Times New Roman;-inkscape-font-specification:'Times New Roman,'"
       id="text4449-4-3-9-1-8-5-9-1">
      <path
         d="m 104.39788,339.10785 0,0.20508 c -0.65235,-0.0899 -1.1836,-0.35547 -1.59375,-0.79688 -0.40625,-0.4375 -0.60938,-0.92383 -0.60937,-1.45898 -1e-5,-0.28125 0.0449,-0.60742 0.13476,-0.97852 0.0898,-0.375 0.13476,-0.66601 0.13477,-0.87304 -1e-5,-0.28125 -0.11915,-0.54297 -0.35743,-0.78516 -0.23437,-0.24609 -0.56054,-0.39648 -0.97851,-0.45117 l 0,-0.24024 c 0.41797,-0.0547 0.74414,-0.20312 0.97851,-0.44531 0.23828,-0.24217 0.35742,-0.50585 0.35743,-0.79101 -1e-5,-0.20702 -0.0449,-0.49608 -0.13477,-0.86718 -0.0898,-0.37109 -0.13477,-0.69922 -0.13476,-0.98438 -1e-5,-0.53124 0.20312,-1.01757 0.60937,-1.45898 0.41015,-0.4414 0.9414,-0.70507 1.59375,-0.79102 l 0,0.20508 c -0.45704,0.10938 -0.79297,0.28907 -1.00781,0.53906 -0.21094,0.2461 -0.31641,0.51759 -0.31641,0.81446 0,0.23047 0.043,0.53516 0.12891,0.91406 0.0898,0.375 0.13476,0.69532 0.13476,0.96094 0,0.39453 -0.14453,0.77734 -0.43359,1.14843 -0.28907,0.37109 -0.72071,0.6582 -1.29492,0.86132 0.5625,0.20704 0.99023,0.5 1.2832,0.87891 0.29687,0.37891 0.44531,0.76562 0.44531,1.16015 0,0.26563 -0.0449,0.58594 -0.13476,0.96094 -0.0859,0.37891 -0.12891,0.68359 -0.12891,0.91406 0,0.29688 0.10547,0.56836 0.31641,0.81446 0.21484,0.25 0.55077,0.43164 1.00781,0.54492"
         id="path4454-2-3-4-5-9-5-6-0"
         inkscape:connector-curvature="0" />
    </g>
    <g
       transform="matrix(0,-2.7134328,-8.1506893,0,3160.6343,645.39542)"
       style="font-size:12px;font-style:normal;font-variant:normal;font-weight:normal;font-stretch:normal;text-align:start;line-height:125%;letter-spacing:0px;word-spacing:0px;writing-mode:lr-tb;text-anchor:start;fill:#000000;fill-opacity:1;stroke:none;font-family:Times New Roman;-inkscape-font-specification:'Times New Roman,'"
       id="text4449-4-3-9-1-8-5-9-1-6">
      <path
         d="m 104.39788,339.10785 0,0.20508 c -0.65235,-0.0899 -1.1836,-0.35547 -1.59375,-0.79688 -0.40625,-0.4375 -0.60938,-0.92383 -0.60937,-1.45898 -1e-5,-0.28125 0.0449,-0.60742 0.13476,-0.97852 0.0898,-0.375 0.13476,-0.66601 0.13477,-0.87304 -1e-5,-0.28125 -0.11915,-0.54297 -0.35743,-0.78516 -0.23437,-0.24609 -0.56054,-0.39648 -0.97851,-0.45117 l 0,-0.24024 c 0.41797,-0.0547 0.74414,-0.20312 0.97851,-0.44531 0.23828,-0.24217 0.35742,-0.50585 0.35743,-0.79101 -1e-5,-0.20702 -0.0449,-0.49608 -0.13477,-0.86718 -0.0898,-0.37109 -0.13477,-0.69922 -0.13476,-0.98438 -1e-5,-0.53124 0.20312,-1.01757 0.60937,-1.45898 0.41015,-0.4414 0.9414,-0.70507 1.59375,-0.79102 l 0,0.20508 c -0.45704,0.10938 -0.79297,0.28907 -1.00781,0.53906 -0.21094,0.2461 -0.31641,0.51759 -0.31641,0.81446 0,0.23047 0.043,0.53516 0.12891,0.91406 0.0898,0.375 0.13476,0.69532 0.13476,0.96094 0,0.39453 -0.14453,0.77734 -0.43359,1.14843 -0.28907,0.37109 -0.72071,0.6582 -1.29492,0.86132 0.5625,0.20704 0.99023,0.5 1.2832,0.87891 0.29687,0.37891 0.44531,0.76562 0.44531,1.16015 0,0.26563 -0.0449,0.58594 -0.13476,0.96094 -0.0859,0.37891 -0.12891,0.68359 -0.12891,0.91406 0,0.29688 0.10547,0.56836 0.31641,0.81446 0.21484,0.25 0.55077,0.43164 1.00781,0.54492"
         id="path4454-2-3-4-5-9-5-6-0-4"
         inkscape:connector-curvature="0" />
    </g>
    <text
       xml:space="preserve"
       style="font-size:12px;font-style:normal;font-variant:normal;font-weight:normal;font-stretch:normal;text-align:start;line-height:125%;letter-spacing:0px;word-spacing:0px;writing-mode:lr-tb;text-anchor:start;fill:#000000;fill-opacity:1;stroke:none;font-family:Times New Roman;-inkscape-font-specification:'Times New Roman,'"
       x="141.81216"
       y="328.36218"
       id="text4767"
       sodipodi:linespacing="125%"><tspan
         sodipodi:role="line"
         id="tspan4769"
         x="141.81216"
         y="328.36218">1</tspan></text>
    <text
       xml:space="preserve"
       style="font-size:12px;font-style:normal;font-variant:normal;font-weight:normal;font-stretch:normal;text-align:start;line-height:125%;letter-spacing:0px;word-spacing:0px;writing-mode:lr-tb;text-anchor:start;fill:#000000;fill-opacity:1;stroke:none;font-family:Times New Roman;-inkscape-font-specification:'Times New Roman,'"
       x="154"
       y="328.36218"
       id="text4771"
       sodipodi:linespacing="125%"><tspan
         sodipodi:role="line"
         id="tspan4773"
         x="154"
         y="328.36218">2</tspan></text>
    <text
       xml:space="preserve"
       style="font-size:12px;font-style:normal;font-variant:normal;font-weight:normal;font-stretch:normal;text-align:start;line-height:125%;letter-spacing:0px;word-spacing:0px;writing-mode:lr-tb;text-anchor:start;fill:#000000;fill-opacity:1;stroke:none;font-family:Times New Roman;-inkscape-font-specification:'Times New Roman,'"
       x="186.17049"
       y="397.7085"
       id="text4775"
       sodipodi:linespacing="125%"><tspan
         sodipodi:role="line"
         id="tspan4777"
         x="186.17049"
         y="397.7085">3</tspan></text>
    <text
       xml:space="preserve"
       style="font-size:12px;font-style:normal;font-variant:normal;font-weight:normal;font-stretch:normal;text-align:start;line-height:125%;letter-spacing:0px;word-spacing:0px;writing-mode:lr-tb;text-anchor:start;fill:#000000;fill-opacity:1;stroke:none;font-family:Times New Roman;-inkscape-font-specification:'Times New Roman,'"
       x="238.59393"
       y="397.84912"
       id="text4779"
       sodipodi:linespacing="125%"><tspan
         sodipodi:role="line"
         id="tspan4781"
         x="238.59393"
         y="397.84912">4</tspan></text>
    <text
       xml:space="preserve"
       style="font-size:12px;font-style:normal;font-variant:normal;font-weight:normal;font-stretch:normal;text-align:start;line-height:125%;letter-spacing:0px;word-spacing:0px;writing-mode:lr-tb;text-anchor:start;fill:#000000;fill-opacity:1;stroke:none;font-family:Times New Roman;-inkscape-font-specification:'Times New Roman,'"
       x="277.57547"
       y="397.7085"
       id="text4783"
       sodipodi:linespacing="125%"><tspan
         sodipodi:role="line"
         id="tspan4785"
         x="277.57547"
         y="397.7085">5</tspan></text>
    <text
       xml:space="preserve"
       style="font-size:12px;font-style:normal;font-variant:normal;font-weight:normal;font-stretch:normal;text-align:start;line-height:125%;letter-spacing:0px;word-spacing:0px;writing-mode:lr-tb;text-anchor:start;fill:#000000;fill-opacity:1;stroke:none;font-family:Times New Roman;-inkscape-font-specification:'Times New Roman,'"
       x="297.72205"
       y="397.7085"
       id="text4787"
       sodipodi:linespacing="125%"><tspan
         sodipodi:role="line"
         id="tspan4789"
         x="297.72205"
         y="397.7085">6</tspan></text>
    <text
       xml:space="preserve"
       style="font-size:12px;font-style:normal;font-variant:normal;font-weight:normal;font-stretch:normal;text-align:start;line-height:125%;letter-spacing:0px;word-spacing:0px;writing-mode:lr-tb;text-anchor:start;fill:#000000;fill-opacity:1;stroke:none;font-family:Times New Roman;-inkscape-font-specification:'Times New Roman,'"
       x="317.21283"
       y="397.7085"
       id="text4791"
       sodipodi:linespacing="125%"><tspan
         sodipodi:role="line"
         id="tspan4793"
         x="317.21283"
         y="397.7085">5</tspan></text>
    <path
       sodipodi:type="arc"
       style="opacity:0.99588478999999996;fill:#ffffff;fill-opacity:1;stroke:#ff0000;stroke-width:3;stroke-miterlimit:4;stroke-opacity:1;stroke-dasharray:none;stroke-dashoffset:0"
       id="path4429"
       sodipodi:cx="352.5"
       sodipodi:cy="212.5"
       sodipodi:rx="3.5"
       sodipodi:ry="3.5"
       d="m 356,212.5 c 0,1.933 -1.567,3.5 -3.5,3.5 -1.933,0 -3.5,-1.567 -3.5,-3.5 0,-1.933 1.567,-3.5 3.5,-3.5 1.933,0 3.5,1.567 3.5,3.5 z"
       transform="translate(-2.5,60.362183)" />
    <text
       xml:space="preserve"
       style="font-size:12px;font-style:normal;font-variant:normal;font-weight:normal;font-stretch:normal;text-align:start;line-height:125%;letter-spacing:0px;word-spacing:0px;writing-mode:lr-tb;text-anchor:start;fill:#000000;fill-opacity:1;stroke:none;font-family:Times New Roman;-inkscape-font-specification:'Times New Roman,'"
       x="337.392"
       y="397.84912"
       id="text4795"
       sodipodi:linespacing="125%"><tspan
         sodipodi:role="line"
         id="tspan4797"
         x="337.392"
         y="397.84912">4</tspan></text>
    <g
       transform="matrix(0,2.7134328,-0.7963246,0,619.74703,59.678733)"
       style="font-size:12px;font-style:normal;font-variant:normal;font-weight:normal;font-stretch:normal;text-align:start;line-height:125%;letter-spacing:0px;word-spacing:0px;writing-mode:lr-tb;text-anchor:start;fill:#000000;fill-opacity:1;stroke:none;font-family:Times New Roman;-inkscape-font-specification:'Times New Roman,'"
       id="text4449-4-3-9-1-8-5-9-9-0">
      <path
         d="m 104.39788,339.10785 0,0.20508 c -0.65235,-0.0899 -1.1836,-0.35547 -1.59375,-0.79688 -0.40625,-0.4375 -0.60938,-0.92383 -0.60937,-1.45898 -1e-5,-0.28125 0.0449,-0.60742 0.13476,-0.97852 0.0898,-0.375 0.13476,-0.66601 0.13477,-0.87304 -1e-5,-0.28125 -0.11915,-0.54297 -0.35743,-0.78516 -0.23437,-0.24609 -0.56054,-0.39648 -0.97851,-0.45117 l 0,-0.24024 c 0.41797,-0.0547 0.74414,-0.20312 0.97851,-0.44531 0.23828,-0.24217 0.35742,-0.50585 0.35743,-0.79101 -1e-5,-0.20702 -0.0449,-0.49608 -0.13477,-0.86718 -0.0898,-0.37109 -0.13477,-0.69922 -0.13476,-0.98438 -1e-5,-0.53124 0.20312,-1.01757 0.60937,-1.45898 0.41015,-0.4414 0.9414,-0.70507 1.59375,-0.79102 l 0,0.20508 c -0.45704,0.10938 -0.79297,0.28907 -1.00781,0.53906 -0.21094,0.2461 -0.31641,0.51759 -0.31641,0.81446 0,0.23047 0.043,0.53516 0.12891,0.91406 0.0898,0.375 0.13476,0.69532 0.13476,0.96094 0,0.39453 -0.14453,0.77734 -0.43359,1.14843 -0.28907,0.37109 -0.72071,0.6582 -1.29492,0.86132 0.5625,0.20704 0.99023,0.5 1.2832,0.87891 0.29687,0.37891 0.44531,0.76562 0.44531,1.16015 0,0.26563 -0.0449,0.58594 -0.13476,0.96094 -0.0859,0.37891 -0.12891,0.68359 -0.12891,0.91406 0,0.29688 0.10547,0.56836 0.31641,0.81446 0.21484,0.25 0.55077,0.43164 1.00781,0.54492"
         id="path4454-2-3-4-5-9-5-6-2-4"
         inkscape:connector-curvature="0" />
    </g>
    <text
       xml:space="preserve"
       style="font-size:12px;font-style:normal;font-variant:normal;font-weight:normal;font-stretch:normal;text-align:start;line-height:125%;letter-spacing:0px;word-spacing:0px;writing-mode:lr-tb;text-anchor:start;fill:#000000;fill-opacity:1;stroke:none;font-family:Times New Roman;-inkscape-font-specification:'Times New Roman,'"
       x="351.52228"
       y="328.49893"
       id="text4822"
       sodipodi:linespacing="125%"><tspan
         sodipodi:role="line"
         id="tspan4824"
         x="351.52228"
         y="328.49893">2</tspan></text>
    <text
       xml:space="preserve"
       style="font-size:12px;font-style:normal;font-variant:normal;font-weight:normal;font-stretch:normal;text-align:start;line-height:125%;letter-spacing:0px;word-spacing:0px;writing-mode:lr-tb;text-anchor:start;fill:#000000;fill-opacity:1;stroke:none;font-family:Times New Roman;-inkscape-font-specification:'Times New Roman,'"
       x="373.01306"
       y="358.23013"
       id="text4826"
       sodipodi:linespacing="125%"
       transform="translate(0,62.362183)"><tspan
         sodipodi:role="line"
         id="tspan4828"
         x="373.01306"
         y="358.23013">3</tspan></text>
    <text
       xml:space="preserve"
       style="font-size:12px;font-style:normal;font-variant:normal;font-weight:normal;font-stretch:normal;text-align:start;line-height:125%;letter-spacing:0px;word-spacing:0px;writing-mode:lr-tb;text-anchor:start;fill:#000000;fill-opacity:1;stroke:none;font-family:Times New Roman;-inkscape-font-specification:'Times New Roman,'"
       x="437.53424"
       y="395.65964"
       id="text4830"
       sodipodi:linespacing="125%"><tspan
         sodipodi:role="line"
         id="tspan4832"
         x="437.53424"
         y="395.65964">4</tspan></text>
    <g
       transform="matrix(2.7134336,0,0,5.6105403,-172.66436,-1770.5271)"
       style="font-size:12px;font-style:normal;font-variant:normal;font-weight:normal;font-stretch:normal;text-align:start;line-height:125%;letter-spacing:0px;word-spacing:0px;writing-mode:lr-tb;text-anchor:start;fill:#000000;fill-opacity:1;stroke:none;font-family:Times New Roman;-inkscape-font-specification:'Times New Roman,'"
       id="text4449-1-2-8">
      <path
         d="m 104.39788,339.10785 0,0.20508 c -0.65235,-0.0899 -1.1836,-0.35547 -1.59375,-0.79688 -0.40625,-0.4375 -0.60938,-0.92383 -0.60937,-1.45898 -1e-5,-0.28125 0.0449,-0.60742 0.13476,-0.97852 0.0898,-0.375 0.13476,-0.66601 0.13477,-0.87304 -1e-5,-0.28125 -0.11915,-0.54297 -0.35743,-0.78516 -0.23437,-0.24609 -0.56054,-0.39648 -0.97851,-0.45117 l 0,-0.24024 c 0.41797,-0.0547 0.74414,-0.20312 0.97851,-0.44531 0.23828,-0.24218 0.35742,-0.50586 0.35743,-0.79102 -1e-5,-0.20702 -0.0449,-0.49608 -0.13477,-0.86718 -0.0898,-0.37109 -0.13477,-0.69922 -0.13476,-0.98438 -1e-5,-0.53124 0.20312,-1.01757 0.60937,-1.45898 0.41015,-0.4414 0.9414,-0.70507 1.59375,-0.79102 l 0,0.20508 c -0.45704,0.10938 -0.79297,0.28907 -1.00781,0.53906 -0.21094,0.2461 -0.31641,0.51759 -0.31641,0.81446 0,0.23047 0.043,0.53516 0.12891,0.91406 0.0898,0.375 0.13476,0.69532 0.13476,0.96094 0,0.39453 -0.14453,0.77734 -0.43359,1.14843 -0.28907,0.3711 -0.72071,0.65821 -1.29492,0.86133 0.5625,0.20704 0.99023,0.5 1.2832,0.87891 0.29687,0.37891 0.44531,0.76562 0.44531,1.16015 0,0.26563 -0.0449,0.58594 -0.13476,0.96094 -0.0859,0.37891 -0.12891,0.68359 -0.12891,0.91406 0,0.29688 0.10547,0.56836 0.31641,0.81446 0.21484,0.25 0.55077,0.43164 1.00781,0.54492"
         id="path4454-9-9-1"
         inkscape:connector-curvature="0" />
    </g>
    <text
       xml:space="preserve"
       style="font-size:12px;font-style:normal;font-variant:normal;font-weight:normal;font-stretch:normal;text-align:start;line-height:125%;letter-spacing:0px;word-spacing:0px;writing-mode:lr-tb;text-anchor:start;fill:#000000;fill-opacity:1;stroke:none;font-family:Times New Roman;-inkscape-font-specification:'Times New Roman,'"
       x="90.060814"
       y="44.361488"
       id="text4876"
       sodipodi:linespacing="125%"
       transform="translate(0,62.362183)"><tspan
         sodipodi:role="line"
         id="tspan4878"
         x="90.060814"
         y="44.361488">6</tspan></text>
    <g
       transform="matrix(2.7134336,0,0,5.5156253,-172.66436,-1378.3212)"
       style="font-size:12px;font-style:normal;font-variant:normal;font-weight:normal;font-stretch:normal;text-align:start;line-height:125%;letter-spacing:0px;word-spacing:0px;writing-mode:lr-tb;text-anchor:start;fill:#000000;fill-opacity:1;stroke:none;font-family:Times New Roman;-inkscape-font-specification:'Times New Roman,'"
       id="text4449-1-2-8-1">
      <path
         d="m 104.39788,339.10785 0,0.20508 c -0.65235,-0.0899 -1.1836,-0.35547 -1.59375,-0.79688 -0.40625,-0.4375 -0.60938,-0.92383 -0.60937,-1.45898 -1e-5,-0.28125 0.0449,-0.60742 0.13476,-0.97852 0.0898,-0.375 0.13476,-0.66601 0.13477,-0.87304 -1e-5,-0.28125 -0.11915,-0.54297 -0.35743,-0.78516 -0.23437,-0.24609 -0.56054,-0.39648 -0.97851,-0.45117 l 0,-0.24024 c 0.41797,-0.0547 0.74414,-0.20312 0.97851,-0.44531 0.23828,-0.24218 0.35742,-0.50586 0.35743,-0.79102 -1e-5,-0.20702 -0.0449,-0.49608 -0.13477,-0.86718 -0.0898,-0.37109 -0.13477,-0.69922 -0.13476,-0.98438 -1e-5,-0.53124 0.20312,-1.01757 0.60937,-1.45898 0.41015,-0.4414 0.9414,-0.70507 1.59375,-0.79102 l 0,0.20508 c -0.45704,0.10938 -0.79297,0.28907 -1.00781,0.53906 -0.21094,0.2461 -0.31641,0.51759 -0.31641,0.81446 0,0.23047 0.043,0.53516 0.12891,0.91406 0.0898,0.375 0.13476,0.69532 0.13476,0.96094 0,0.39453 -0.14453,0.77734 -0.43359,1.14843 -0.28907,0.3711 -0.72071,0.65821 -1.29492,0.86133 0.5625,0.20704 0.99023,0.5 1.2832,0.87891 0.29687,0.37891 0.44531,0.76562 0.44531,1.16015 0,0.26563 -0.0449,0.58594 -0.13476,0.96094 -0.0859,0.37891 -0.12891,0.68359 -0.12891,0.91406 0,0.29688 0.10547,0.56836 0.31641,0.81446 0.21484,0.25 0.55077,0.43164 1.00781,0.54492"
         id="path4454-9-9-1-1"
         inkscape:connector-curvature="0" />
    </g>
    <text
       xml:space="preserve"
       style="font-size:12px;font-style:normal;font-variant:normal;font-weight:normal;font-stretch:normal;text-align:start;line-height:125%;letter-spacing:0px;word-spacing:0px;writing-mode:lr-tb;text-anchor:start;fill:#000000;fill-opacity:1;stroke:none;font-family:Times New Roman;-inkscape-font-specification:'Times New Roman,'"
       x="91.404999"
       y="403.93265"
       id="text4901"
       sodipodi:linespacing="125%"
       transform="translate(0,62.362183)"><tspan
         sodipodi:role="line"
         id="tspan4903"
         x="91.404999"
         y="403.93265">0</tspan></text>
    <text
       xml:space="preserve"
       style="font-size:12px;font-style:normal;font-variant:normal;font-weight:normal;font-stretch:normal;text-align:start;line-height:125%;letter-spacing:0px;word-spacing:0px;writing-mode:lr-tb;text-anchor:start;fill:#000000;fill-opacity:1;stroke:none;font-family:Times New Roman;-inkscape-font-specification:'Times New Roman,'"
       x="513.46472"
       y="396.39688"
       id="text4905"
       sodipodi:linespacing="125%"><tspan
         sodipodi:role="line"
         id="tspan4907"
         x="513.46472"
         y="396.39688">5</tspan></text>
    <g
       transform="matrix(0,-2.7134328,-6.2032846,0,2587.1032,645.04563)"
       style="font-size:12px;font-style:normal;font-variant:normal;font-weight:normal;font-stretch:normal;text-align:start;line-height:125%;letter-spacing:0px;word-spacing:0px;writing-mode:lr-tb;text-anchor:start;fill:#000000;fill-opacity:1;stroke:none;font-family:Times New Roman;-inkscape-font-specification:'Times New Roman,'"
       id="text4449-4-3-9-1-8-5-9-1-6-9">
      <path
         d="m 104.39788,339.10785 0,0.20508 c -0.65235,-0.0899 -1.1836,-0.35547 -1.59375,-0.79688 -0.40625,-0.4375 -0.60938,-0.92383 -0.60937,-1.45898 -1e-5,-0.28125 0.0449,-0.60742 0.13476,-0.97852 0.0898,-0.375 0.13476,-0.66601 0.13477,-0.87304 -1e-5,-0.28125 -0.11915,-0.54297 -0.35743,-0.78516 -0.23437,-0.24609 -0.56054,-0.39648 -0.97851,-0.45117 l 0,-0.24024 c 0.41797,-0.0547 0.74414,-0.20312 0.97851,-0.44531 0.23828,-0.24217 0.35742,-0.50585 0.35743,-0.79101 -1e-5,-0.20702 -0.0449,-0.49608 -0.13477,-0.86718 -0.0898,-0.37109 -0.13477,-0.69922 -0.13476,-0.98438 -1e-5,-0.53124 0.20312,-1.01757 0.60937,-1.45898 0.41015,-0.4414 0.9414,-0.70507 1.59375,-0.79102 l 0,0.20508 c -0.45704,0.10938 -0.79297,0.28907 -1.00781,0.53906 -0.21094,0.2461 -0.31641,0.51759 -0.31641,0.81446 0,0.23047 0.043,0.53516 0.12891,0.91406 0.0898,0.375 0.13476,0.69532 0.13476,0.96094 0,0.39453 -0.14453,0.77734 -0.43359,1.14843 -0.28907,0.37109 -0.72071,0.6582 -1.29492,0.86132 0.5625,0.20704 0.99023,0.5 1.2832,0.87891 0.29687,0.37891 0.44531,0.76562 0.44531,1.16015 0,0.26563 -0.0449,0.58594 -0.13476,0.96094 -0.0859,0.37891 -0.12891,0.68359 -0.12891,0.91406 0,0.29688 0.10547,0.56836 0.31641,0.81446 0.21484,0.25 0.55077,0.43164 1.00781,0.54492"
         id="path4454-2-3-4-5-9-5-6-0-4-2"
         inkscape:connector-curvature="0" />
    </g>
    <text
       xml:space="preserve"
       style="font-size:12px;font-style:normal;font-variant:normal;font-weight:normal;font-stretch:normal;text-align:start;line-height:125%;letter-spacing:0px;word-spacing:0px;writing-mode:lr-tb;text-anchor:start;fill:#000000;fill-opacity:1;stroke:none;font-family:Times New Roman;-inkscape-font-specification:'Times New Roman,'"
       x="132"
       y="328.36218"
       id="text4930"
       sodipodi:linespacing="125%"><tspan
         sodipodi:role="line"
         id="tspan4932"
         x="132"
         y="328.36218">0</tspan></text>
    <g
       transform="matrix(0,2.7134328,-1.1763562,0,528.08802,59.063569)"
       style="font-size:12px;font-style:normal;font-variant:normal;font-weight:normal;font-stretch:normal;text-align:start;line-height:125%;letter-spacing:0px;word-spacing:0px;writing-mode:lr-tb;text-anchor:start;fill:#000000;fill-opacity:1;stroke:none;font-family:Times New Roman;-inkscape-font-specification:'Times New Roman,'"
       id="text4449-4-2">
      <path
         d="m 104.39788,338.9932 0,0.20289 c -0.65235,-0.0889 -1.1836,-0.35166 -1.59375,-0.78836 -0.40625,-0.43281 -0.60938,-0.91394 -0.60937,-1.44337 -1e-5,-0.27824 0.0449,-0.60092 0.13476,-0.96805 0.0898,-0.37099 0.13476,-0.65888 0.13477,-0.8637 -1e-5,-0.27824 -0.11915,-0.53716 -0.35743,-0.77676 -0.23437,-0.24346 -0.56054,-0.39224 -0.97851,-0.44634 l 0,-0.23768 c 0.41797,-0.0541 0.74414,-0.20094 0.97851,-0.44054 0.23828,-0.23958 0.35742,-0.50044 0.35743,-0.78255 -1e-5,-0.2048 -0.0449,-0.49077 -0.13477,-0.8579 -0.0898,-0.36712 -0.13477,-0.69174 -0.13476,-0.97385 -1e-5,-0.52556 0.20312,-1.00668 0.60937,-1.44338 0.41015,-0.43667 0.9414,-0.69752 1.59375,-0.78255 l 0,0.20289 c -0.45704,0.10821 -0.79297,0.28598 -1.00781,0.53329 -0.21094,0.24347 -0.31641,0.51206 -0.31641,0.80574 0,0.22801 0.043,0.52944 0.12891,0.90429 0.0898,0.37099 0.13476,0.68788 0.13476,0.95065 0,0.39032 -0.14453,0.76903 -0.43359,1.13615 -0.28907,0.36712 -0.72071,0.65116 -1.29492,0.85211 0.5625,0.20483 0.99023,0.49465 1.2832,0.8695 0.29687,0.37486 0.44531,0.75744 0.44531,1.14774 0,0.2628 -0.0449,0.57968 -0.13476,0.95067 -0.0859,0.37485 -0.12891,0.67627 -0.12891,0.90427 0,0.29371 0.10547,0.56229 0.31641,0.80575 0.21484,0.24733 0.55077,0.42703 1.00781,0.53909"
         id="path4454-2-0"
         inkscape:connector-curvature="0" />
    </g>
    <path
       style="fill:none;stroke:#000000;stroke-width:1px;stroke-linecap:butt;stroke-linejoin:miter;stroke-opacity:1"
       d="m 110,10 250,0"
       id="path5012"
       inkscape:connector-curvature="0"
       transform="translate(0,62.362183)" />
    <path
       style="fill:none;stroke:#ff0000;stroke-width:3;stroke-linecap:butt;stroke-linejoin:miter;stroke-miterlimit:4;stroke-opacity:1;stroke-dasharray:none"
       d="m 295,15 c 3,-3 5,-10 5,-10 0,0 2,7 5,10"
       id="path5014"
       inkscape:connector-curvature="0"
       transform="translate(0,62.362183)"
       sodipodi:nodetypes="ccc" />
    <path
       style="fill:none;stroke:#ff0000;stroke-width:1px;stroke-linecap:butt;stroke-linejoin:miter;stroke-opacity:1"
       d="M 282,26 C 307,22 299,13 318,7"
       id="path5022"
       inkscape:connector-curvature="0"
       transform="translate(0,62.362183)"
       sodipodi:nodetypes="cc" />
    <path
       style="fill:none;stroke:#ff0000;stroke-width:1px;stroke-linecap:butt;stroke-linejoin:miter;stroke-opacity:1"
       d="m 282,94.362183 c 25,-4 17,-13 36,-19"
       id="path5022-7"
       inkscape:connector-curvature="0"
       sodipodi:nodetypes="cc" />
    <g
       transform="matrix(2.7134336,0,0,5.5156253,-172.68353,-1798.5318)"
       style="font-size:12px;font-style:normal;font-variant:normal;font-weight:normal;font-stretch:normal;text-align:start;line-height:125%;letter-spacing:0px;word-spacing:0px;writing-mode:lr-tb;text-anchor:start;fill:#000000;fill-opacity:1;stroke:none;font-family:Times New Roman;-inkscape-font-specification:'Times New Roman,'"
       id="text4449-1-2-8-7">
      <path
         d="m 104.39788,339.10785 0,0.20508 c -0.65235,-0.0899 -1.1836,-0.35547 -1.59375,-0.79688 -0.40625,-0.4375 -0.60938,-0.92383 -0.60937,-1.45898 -1e-5,-0.28125 0.0449,-0.60742 0.13476,-0.97852 0.0898,-0.375 0.13476,-0.66601 0.13477,-0.87304 -1e-5,-0.28125 -0.11915,-0.54297 -0.35743,-0.78516 -0.23437,-0.24609 -0.56054,-0.39648 -0.97851,-0.45117 l 0,-0.24024 c 0.41797,-0.0547 0.74414,-0.20312 0.97851,-0.44531 0.23828,-0.24218 0.35742,-0.50586 0.35743,-0.79102 -1e-5,-0.20702 -0.0449,-0.49608 -0.13477,-0.86718 -0.0898,-0.37109 -0.13477,-0.69922 -0.13476,-0.98438 -1e-5,-0.53124 0.20312,-1.01757 0.60937,-1.45898 0.41015,-0.4414 0.9414,-0.70507 1.59375,-0.79102 l 0,0.20508 c -0.45704,0.10938 -0.79297,0.28907 -1.00781,0.53906 -0.21094,0.2461 -0.31641,0.51759 -0.31641,0.81446 0,0.23047 0.043,0.53516 0.12891,0.91406 0.0898,0.375 0.13476,0.69532 0.13476,0.96094 0,0.39453 -0.14453,0.77734 -0.43359,1.14843 -0.28907,0.3711 -0.72071,0.65821 -1.29492,0.86133 0.5625,0.20704 0.99023,0.5 1.2832,0.87891 0.29687,0.37891 0.44531,0.76562 0.44531,1.16015 0,0.26563 -0.0449,0.58594 -0.13476,0.96094 -0.0859,0.37891 -0.12891,0.68359 -0.12891,0.91406 0,0.29688 0.10547,0.56836 0.31641,0.81446 0.21484,0.25 0.55077,0.43164 1.00781,0.54492"
         id="path4454-9-9-1-9"
         inkscape:connector-curvature="0" />
    </g>
    <text
       xml:space="preserve"
       style="font-size:12px;font-style:normal;font-variant:normal;font-weight:normal;font-stretch:normal;text-align:start;line-height:125%;letter-spacing:0px;word-spacing:0px;writing-mode:lr-tb;text-anchor:start;fill:#000000;fill-opacity:1;stroke:none;font-family:Times New Roman;-inkscape-font-specification:'Times New Roman,'"
       x="90"
       y="12.362183"
       id="text4876-1"
       sodipodi:linespacing="125%"><tspan
         sodipodi:role="line"
         id="tspan4878-7"
         x="90"
         y="12.362183"></tspan></text>
    <text
       xml:space="preserve"
       style="font-size:12px;font-style:normal;font-variant:normal;font-weight:normal;font-stretch:normal;text-align:start;line-height:125%;letter-spacing:0px;word-spacing:0px;writing-mode:lr-tb;text-anchor:start;fill:#000000;fill-opacity:1;stroke:none;font-family:Times New Roman;-inkscape-font-specification:'Times New Roman,'"
       x="73.346146"
       y="77.47776"
       id="text5086"
       sodipodi:linespacing="125%"><tspan
         sodipodi:role="line"
         id="tspan5088"
         x="73.346146"
         y="77.47776"></tspan></text>
    <path
       style="fill:none;stroke:#000000;stroke-width:1px;stroke-linecap:butt;stroke-linejoin:miter;stroke-opacity:1"
       d="m 110,492.36218 40,0"
       id="path4399-3"
       inkscape:connector-curvature="0"
       sodipodi:nodetypes="cc" />
    <text
       xml:space="preserve"
       style="font-size:12px;font-style:normal;font-variant:normal;font-weight:normal;font-stretch:normal;text-align:start;line-height:125%;letter-spacing:0px;word-spacing:0px;writing-mode:lr-tb;text-anchor:start;fill:#000000;fill-opacity:1;stroke:none;font-family:Times New Roman;-inkscape-font-specification:'Times New Roman,'"
       x="64.719215"
       y="431.28473"
       id="text5144"
       sodipodi:linespacing="125%"
       transform="translate(0,62.362183)"><tspan
         sodipodi:role="line"
         id="tspan5146"
         x="64.719215"
         y="431.28473">- </tspan></text>
    <text
       xml:space="preserve"
       style="font-size:12px;font-style:normal;font-variant:normal;font-weight:normal;font-stretch:normal;text-align:start;line-height:125%;letter-spacing:0px;word-spacing:0px;writing-mode:lr-tb;text-anchor:start;fill:#000000;fill-opacity:1;stroke:none;font-family:Times New Roman;-inkscape-font-specification:'Times New Roman,'"
       x="70"
       y="554.36218"
       id="text4876-1-8"
       sodipodi:linespacing="125%"><tspan
         sodipodi:role="line"
         id="tspan4878-7-1"
         x="70"
         y="554.36218">-</tspan></text>
    <g
       transform="matrix(2.7134336,0,0,5.5156253,-172.68353,-1319.5165)"
       style="font-size:12px;font-style:normal;font-variant:normal;font-weight:normal;font-stretch:normal;text-align:start;line-height:125%;letter-spacing:0px;word-spacing:0px;writing-mode:lr-tb;text-anchor:start;fill:#000000;fill-opacity:1;stroke:none;font-family:Times New Roman;-inkscape-font-specification:'Times New Roman,'"
       id="text4449-1-2-8-1-0">
      <path
         d="m 104.39788,339.10785 0,0.20508 c -0.65235,-0.0899 -1.1836,-0.35547 -1.59375,-0.79688 -0.40625,-0.4375 -0.60938,-0.92383 -0.60937,-1.45898 -1e-5,-0.28125 0.0449,-0.60742 0.13476,-0.97852 0.0898,-0.375 0.13476,-0.66601 0.13477,-0.87304 -1e-5,-0.28125 -0.11915,-0.54297 -0.35743,-0.78516 -0.23437,-0.24609 -0.56054,-0.39648 -0.97851,-0.45117 l 0,-0.24024 c 0.41797,-0.0547 0.74414,-0.20312 0.97851,-0.44531 0.23828,-0.24218 0.35742,-0.50586 0.35743,-0.79102 -1e-5,-0.20702 -0.0449,-0.49608 -0.13477,-0.86718 -0.0898,-0.37109 -0.13477,-0.69922 -0.13476,-0.98438 -1e-5,-0.53124 0.20312,-1.01757 0.60937,-1.45898 0.41015,-0.4414 0.9414,-0.70507 1.59375,-0.79102 l 0,0.20508 c -0.45704,0.10938 -0.79297,0.28907 -1.00781,0.53906 -0.21094,0.2461 -0.31641,0.51759 -0.31641,0.81446 0,0.23047 0.043,0.53516 0.12891,0.91406 0.0898,0.375 0.13476,0.69532 0.13476,0.96094 0,0.39453 -0.14453,0.77734 -0.43359,1.14843 -0.28907,0.3711 -0.72071,0.65821 -1.29492,0.86133 0.5625,0.20704 0.99023,0.5 1.2832,0.87891 0.29687,0.37891 0.44531,0.76562 0.44531,1.16015 0,0.26563 -0.0449,0.58594 -0.13476,0.96094 -0.0859,0.37891 -0.12891,0.68359 -0.12891,0.91406 0,0.29688 0.10547,0.56836 0.31641,0.81446 0.21484,0.25 0.55077,0.43164 1.00781,0.54492"
         id="path4454-9-9-1-1-1"
         inkscape:connector-curvature="0" />
    </g>
    <path
       style="fill:none;stroke:#000000;stroke-width:1px;stroke-linecap:butt;stroke-linejoin:miter;stroke-opacity:1"
       d="m 130,490 -20,0"
       id="path5393"
       inkscape:connector-curvature="0"
       transform="translate(0,62.362183)" />
  </g>
</svg>
