<?xml version="1.0" encoding="UTF-8" standalone="no"?>
<!-- Created with Inkscape (http://www.inkscape.org/) -->

<svg
   xmlns:dc="http://purl.org/dc/elements/1.1/"
   xmlns:cc="http://creativecommons.org/ns#"
   xmlns:rdf="http://www.w3.org/1999/02/22-rdf-syntax-ns#"
   xmlns:svg="http://www.w3.org/2000/svg"
   xmlns="http://www.w3.org/2000/svg"
   xmlns:sodipodi="http://sodipodi.sourceforge.net/DTD/sodipodi-0.dtd"
   xmlns:inkscape="http://www.inkscape.org/namespaces/inkscape"
   id="svg2"
   version="1.1"
   inkscape:version="0.48.3.1 r9886"
   width="765"
   height="990"
   sodipodi:docname="ABC_100K.svg">
  <metadata
     id="metadata8">
    <rdf:RDF>
      <cc:Work
         rdf:about="">
        <dc:format>image/svg+xml</dc:format>
        <dc:type
           rdf:resource="http://purl.org/dc/dcmitype/StillImage" />
        <dc:title></dc:title>
      </cc:Work>
    </rdf:RDF>
  </metadata>
  <defs
     id="defs6">
    <marker
       inkscape:stockid="Arrow1Mend"
       orient="auto"
       refY="0.0"
       refX="0.0"
       id="Arrow1Mend"
       style="overflow:visible;">
      <path
         id="path3774"
         d="M 0.0,0.0 L 5.0,-5.0 L -12.5,0.0 L 5.0,5.0 L 0.0,0.0 z "
         style="fill-rule:evenodd;stroke:#000000;stroke-width:1.0pt;"
         transform="scale(0.4) rotate(180) translate(10,0)" />
    </marker>
  </defs>
  <sodipodi:namedview
     pagecolor="#ffffff"
     bordercolor="#666666"
     borderopacity="1"
     objecttolerance="10"
     gridtolerance="10"
     guidetolerance="10"
     inkscape:pageopacity="0"
     inkscape:pageshadow="2"
     inkscape:window-width="1301"
     inkscape:window-height="744"
     id="namedview4"
     showgrid="true"
     inkscape:zoom="1.9553767"
     inkscape:cx="246.83925"
     inkscape:cy="828.59399"
     inkscape:window-x="65"
     inkscape:window-y="24"
     inkscape:window-maximized="1"
     inkscape:current-layer="svg2">
    <inkscape:grid
       type="xygrid"
       id="grid2987"
       empspacing="5"
       visible="true"
       enabled="true"
       snapvisiblegridlinesonly="true" />
  </sodipodi:namedview>
  <path
     style="fill:none;stroke:#00ff00;stroke-width:0.63286715999999998px;stroke-linecap:butt;stroke-linejoin:miter;stroke-opacity:1"
     d="m 112.00747,285.4466 -0.008,-0.98344 0.59656,0 0.0399,0.69876 1.1681,-0.008 0.0575,-2.49105 1.25803,-0.0724 0,-2.52353 0.58019,-0.0242 0,-1.85536 1.30686,0 -0.0325,-3.14508 1.33041,-0.0325 -0.0325,-5.67605 0.5891,-0.0649 0,-3.74427 1.27817,-0.0567 0,-10.02245 1.34273,0 -0.0325,3.72672 0.58909,0 0.0325,-10.7981 1.27294,0 0,-6.26515 1.22488,-0.0422 0.0325,-5.01491 0.62971,0 0,-13.31416 1.24312,-0.0325 0,-9.4677 1.22558,0 0.0649,-10.69327 0.629,0.0325 0,4.37066 1.23304,0 0,-19.05514 1.27294,0 0.0325,-10.0318 0.61309,-0.0629 0.065,-7.68747 1.16912,0 0,-6.91917 1.25864,0.0363 0,-1.22952 0.62841,0 0,-19.00777 1.32312,0.0102 -0.0325,3.18225 1.26532,-0.0325 0,-12.63514 0.67175,0.009 -0.0325,-4.43711 1.25521,-0.0325 0,-23.41833 1.31549,0 -0.0325,3.24729 0.64556,-0.063 0,-1.29729 1.20362,0.0287 0.0559,0.69072 1.16767,0 0.0649,-13.324704 0.64512,0.0407 -0.0325,6.910934 1.29315,-0.0193 0,-4.38386 1.29674,-0.06491 -0.0325,-9.442689 0.65139,0 -0.0325,-12.031134 1.30804,-0.03246 0.0325,16.499164 1.20057,0.03246 0,-27.25735 0.61309,0.164276 0.0325,16.302424 1.24017,-0.02044 0.0325,-18.333311 1.21945,0 0.0973,6.315157 0.58107,-0.02816 0,-1.204844 1.21469,-0.08143 -0.12984,-11.500526 1.38924,0 0.0649,8.404423 0.58911,0.06492 -0.12984,-17.275563 1.25803,0 0,7.024009 1.4218,0.380971 0,9.788117 0.60992,0.01865 0.0325,-12.074777 1.0809,0 0,2.411228 1.46771,0 0,14.66212 0.5802,0.02424 -0.065,-10.807418 1.58144,0 0,-12.475478 1.04837,0 0,9.120728 0.52417,0 0,-4.92729 1.57254,0 0,-6.814337 1.12836,0.302346 0,13.955343 0.44418,0 0,-4.822453 1.4677,0 0,0.943524 1.15321,0 0,3.040242 0.62901,0 0,8.701384 1.36287,0 0,-10.273924 1.36287,0 0,-3.669257 0.54148,0.145089 -0.0325,24.531274 1.29073,0 -0.0325,-8.773759 1.2804,0.03246 0.0325,0.571553 0.54173,-0.03246 0.0325,4.395648 1.1931,0 0.0325,-1.125555 1.1879,-0.09265 0,-13.151772 0.85135,0 0,10.588432 1.1532,0 0,1.887046 1.32355,0.133794 0,4.453986 0.61087,-0.06491 0,1.814671 1.21811,0.09738 0.065,-1.887051 1.27558,-0.03246 -0.0973,2.451146 0.78121,0.03246 -0.0718,-0.589193 1.22499,-0.03246 0.065,-4.490306 1.15319,0 0.065,6.355074 0.61265,0.0082 0.0325,3.830783 1.24194,0 -0.065,5.636137 1.25865,0.03639 0.0973,-10.140582 0.55603,-0.03246 0.065,-3.716632 1.2804,0 -0.0649,18.940214 1.28303,-0.03246 0.0325,2.598533 0.6064,-0.04772 -0.065,-14.524492 2.65843,0 0,17.717287 0.57976,0.018 0.0973,-1.26593 1.18255,-0.0077 0,8.80387 1.32049,0.0325 -0.0325,-10.049344 0.60401,0 -0.0325,3.726734 1.25057,0.0325 0.0974,5.64359 1.17556,0.0325 0.0649,10.73581 0.59656,0 0.0954,-0.58063 1.19509,-0.0325 0.0325,-13.29017 1.18564,0 0.065,17.6848 0.579,0 0.0974,-4.33818 1.13828,0 0.0325,4.39303 1.34532,0.0325 0,2.4586 0.58063,0.063 0,1.81665 1.37044,0.0831 -0.12984,15.12549 1.28324,-0.004 0.0649,-1.90523 1.80527,0 0.065,14.53974 1.26271,0.0281 -0.0649,-10.89867 0.64187,0 0.0325,9.68482 1.29066,0.0102 0,8.12708 1.21646,-0.0161 0.0566,-1.19565 0.53161,0.0143 0.0325,-1.25376 1.22138,0.003 0.0793,3.09927 1.2606,0.0728 0.065,10.15434 0.50856,-0.0325 0.0974,10.71827 1.22314,-0.0172 0.0649,-5.66893 1.24819,0 -0.0325,-3.19245 0.53909,0 0.0973,4.44303 1.25907,0.0627 0.0325,3.73647 1.31928,0 0,5.03212 0.57439,0.0739 0.0649,-5.07359 1.11877,0.008 0.22722,22.22504 0.96767,0 0,-13.94318 0.61308,0.16428 0,11.78701 1.16913,0 0,5.55632 1.51961,-0.40719 0,-2.63307 0.66247,0.17751 0,6.63683 1.24434,0.33343 0,-5.15587 1.39603,0 0,4.71761 0.234,0.4053 0,7.87674 1.49692,0.4011 0,-5.22355 1.20449,0 0,1.99188 1.22617,-0.32855 0,6.40904 0.66902,0.17926 0,4.43352 1.45956,0 0,-5.66114 0.41746,-0.11186 0,2.62792 1.36475,0 0,6.81434 1.36287,0 0,1.88705 0.62902,0 0,-1.15321 1.15318,0 0,4.82246 1.88705,0 0,-3.56442 1.04837,0 0,6.39499 1.57253,0 0,0.52418 0.60795,0.351 0,2.68924 0.9524,0.2552 0,6.1398 1.58474,0 0,-3.14508 0.83868,0 0,-3.14508 0.83868,0 0,0.73385 1.57255,0 0,2.41123 0.31965,0.0856 0,6.20452 1.25288,0 0,-1.25803 1.36288,0 0,-4.82246 0.94352,0 0,6.7095 1.15319,0 -0.23399,-0.4053 1.49203,0 0,2.81653 0.61308,-0.16428 0,-1.5131 1.16912,0 0,5.03213 1.46771,0 0,-4.61278 0.3145,0.31451 0,0.62901 1.36287,0 0,3.24991 1.25804,0 -0.234,0.4053 0.96785,0 0,-2.08267 1.42181,0.38097 0,1.82059 1.72326,0 0,3.24991 1.04836,0 0,1.67738 1.36288,0 0,-1.78222 0.51527,0.13807 0,2.79734 1.3323,0.35699 0,-0.6715 1.612,0 0,-2.83056 0.32668,0.1886 0,3.79516 1.45554,0 0,2.93541 1.04836,0 0.27613,-1.03055 0.57284,0.15348 0,-2.89703 1.24776,0 0,2.20156 1.04835,0 0,-1.1532 0.83492,0.22371 0,2.29235 1.36663,0 0,1.25803 1.04837,0 0,-2.51606 0.7109,0.19049 0,2.74492 2.56374,0 -0.0422,1.24833 0.65226,0.0165 -0.0441,-0.64613 1.2964,0 0.0469,-0.62981 1.22352,-0.0469 -0.11721,-1.93393 0.7109,0.1905 -0.60795,-0.60795 1.88893,0 -0.5196,0.89998 1.72676,-0.4627 0,3.21773 1.96136,0.0235 0.0234,3.75193 1.29453,0.0442 -0.0469,-3.17818 0.62998,0.0173 0.0469,-2.4285 1.17371,0 0,1.15319 1.36286,0 -0.0234,3.76044 1.88833,0.0234 -0.01,0.63378 1.27771,-0.0348 0.006,0.65887 1.84756,0.0235 0.0762,-1.24037 1.20139,-0.0234 0.0938,-1.87848 0.55426,-0.0236 0,0.61685 1.16021,0 0,2.41123 1.41775,0.0969 0.0469,1.96528 0.5281,-0.0163 0.0703,-2.59353 1.23244,0.0469 0.0234,1.86361 1.25367,0.0501 -0.0703,-0.69013 0.77888,0.0331 0.0234,0.68839 1.09035,0.0234 0,-0.73256 1.26911,0.0469 0.0938,2.57273 0.5581,-0.0288 0.0234,-1.33409 1.31659,0.0234 -0.0469,-2.50369 1.2704,-0.0235 0.0234,4.42656 0.61181,0.004 -0.0224,-0.68469 1.26882,4.9e-4 0,-0.57828 1.94916,0.0234 0.0471,-0.65997 1.14073,-0.007 0.0234,1.92374 1.29632,-0.0703 0.006,-1.1874 0.57492,-0.0469 0.0215,-0.59241 1.26002,-0.0235 0.0389,0.67507 1.83632,0.0227 0.0822,2.49075 1.25913,-0.0616 0,-2.5102 1.85131,0.0234 0,3.14507 1.25674,0.0469 0.0234,-3.82097 1.31183,0.0183 -0.0469,1.25081 0.65996,-0.0325 -0.0698,0.68707 1.33685,0.0234 0,-0.82979 1.8546,0.13569 -0.0316,1.25373 1.311,0.0469 -0.0266,1.2255 1.94816,0 -0.0234,-1.29894 1.2704,0.0469 0.0234,0.62773 1.29255,-0.0234 -0.0837,0.71366 0.65573,0.0746 0.0938,-0.77458 1.13993,0.0234 0.0234,0.60429 1.24567,0.0703 0.0234,0.60688 0.67231,0.0163 0.0438,-1.33177 1.20033,0.11135 0.018,0.56223 1.32918,-0.0234 -0.12601,1.30909 0.69578,0.0235 0,-2.57902 1.29126,0 0,0.64138 1.25141,-0.0182 -0.0613,0.61469 0.70321,0.0312 -0.0488,0.641 1.23411,0.0152 0.0536,-0.69908 1.29792,0.007 -0.11957,-0.62532 0.72389,0.003 -0.0469,2.49866 1.30376,0.0234 -0.0369,-0.64335 1.27277,0 -0.0234,-1.85905 0.65869,-0.019 0,0.65778 1.28374,0 -0.005,-0.65551 1.24984,-0.0176 0,1.909 0.68975,0.0274 0,-0.64403 1.26989,0 -0.0234,1.25674 1.87467,0.0234 0,-1.29254 1.33082,-0.034 0.007,1.27713 1.2708,0 0,-1.23212 0.69874,-0.065 0,1.57956 4.19532,0 0,-1.4677 3.26099,-0.0469 -0.0209,0.63247 1.2789,-0.0469 0.0234,0.68351 0.60905,-0.003 c 0,0 0.0234,-0.323 0.0234,-0.64859 l 1.27801,0.0234 -0.0264,0.61714 1.269,0.0496 -0.0235,-0.64195 3.22105,-0.0469 -0.0703,0.67332 0.67489,0.0314 -0.0234,-0.70597 2.57374,-0.0469 -0.0233,0.68341 3.20283,0.0469 -0.0294,-0.65193 2.55788,0.0234 -0.0456,0.57026 1.2444,0.0469 0.0703,0.62049 2.44703,0 0.0234,-1.23459 0.65116,-0.0469 -0.0469,0.89924"
     id="path3188"
     inkscape:connector-curvature="0"
     sodipodi:nodetypes="cccccccccccccccccccccccccccccccccccccccccccccccccccccccccccccccccccccccccccccccccccccccccccccccccccccccccccccccccccccccccccccccccccccccccccccccccccccccccccccccccccccccccccccccccccccccccccccccccccccccccccccccccccccccccccccccccccccccccccccccccccccccccccccccccccccccccccccccccccccccccccccccccccccccccccccccccccccccccccccccccccccccccccccccccccccccccccccccccccccccccccccccccccccccccccccccccccccccccccccccccccccccccccccccccccccccccccccccccccccccccccccccccccccccccccccccccccccccccccccccccccccccccccccccccccccccccccccccccc" />
  <path
     style="fill:none;stroke:#000000;stroke-width:1px;stroke-linecap:butt;stroke-linejoin:miter;stroke-opacity:1;marker-end:url(#Arrow1Mend)"
     d="M 100,295 100,10"
     id="path2991"
     inkscape:connector-curvature="0"
     sodipodi:nodetypes="cc" />
  <path
     style="fill:none;stroke:#ff0000;stroke-width:2;stroke-linecap:butt;stroke-linejoin:miter;stroke-opacity:1;stroke-miterlimit:4;stroke-dasharray:none"
     d="M 115,285 C 125,250 128.2689,205 133.2689,165 138.2689,125 148,57 165,57 c 10,0 22,18 40,53 18,35 20,90 50,130 30,40 80,45 150,45"
     id="path4387"
     inkscape:connector-curvature="0"
     sodipodi:nodetypes="czczzc" />
  <path
     style="fill:none;stroke:#000000;stroke-width:1px;stroke-linecap:butt;stroke-linejoin:miter;stroke-opacity:1"
     d="m 140,285 0,10"
     id="path4389"
     inkscape:connector-curvature="0" />
  <path
     style="fill:none;stroke:#000000;stroke-width:1px;stroke-linecap:butt;stroke-linejoin:miter;stroke-opacity:1"
     d="m 175,285 0,10"
     id="path4389-9"
     inkscape:connector-curvature="0" />
  <path
     style="fill:none;stroke:#000000;stroke-width:1px;stroke-linecap:butt;stroke-linejoin:miter;stroke-opacity:1"
     d="m 215,285 0,10"
     id="path4389-0"
     inkscape:connector-curvature="0" />
  <path
     style="fill:none;stroke:#000000;stroke-width:1px;stroke-linecap:butt;stroke-linejoin:miter;stroke-opacity:1"
     d="m 255,285 0,10"
     id="path4389-03"
     inkscape:connector-curvature="0" />
  <path
     style="fill:none;stroke:#000000;stroke-width:1px;stroke-linecap:butt;stroke-linejoin:miter;stroke-opacity:1"
     d="m 290,285 0,10"
     id="path4389-1"
     inkscape:connector-curvature="0" />
  <path
     style="fill:none;stroke:#000000;stroke-width:1px;stroke-linecap:butt;stroke-linejoin:miter;stroke-opacity:1"
     d="m 330,285 0,10"
     id="path4389-4"
     inkscape:connector-curvature="0" />
  <path
     style="fill:none;stroke:#000000;stroke-width:1px;stroke-linecap:butt;stroke-linejoin:miter;stroke-opacity:1"
     d="m 365,285 0,10"
     id="path4389-09"
     inkscape:connector-curvature="0" />
  <path
     style="fill:none;stroke:#000000;stroke-width:1px;stroke-linecap:butt;stroke-linejoin:miter;stroke-opacity:1"
     d="m 405,285 0,10"
     id="path4389-3"
     inkscape:connector-curvature="0" />
  <path
     style="fill:none;stroke:#000000;stroke-width:1px;stroke-linecap:butt;stroke-linejoin:miter;stroke-opacity:1"
     d="m 100,225 -10,0"
     id="path4451-7"
     inkscape:connector-curvature="0" />
  <path
     style="fill:none;stroke:#000000;stroke-width:1px;stroke-linecap:butt;stroke-linejoin:miter;stroke-opacity:1"
     d="m 100,170 -10,0"
     id="path4451-0"
     inkscape:connector-curvature="0" />
  <path
     style="fill:none;stroke:#000000;stroke-width:1px;stroke-linecap:butt;stroke-linejoin:miter;stroke-opacity:1"
     d="m 100,110 -10,0"
     id="path4451-1"
     inkscape:connector-curvature="0" />
  <path
     style="fill:none;stroke:#000000;stroke-width:1px;stroke-linecap:butt;stroke-linejoin:miter;stroke-opacity:1"
     d="M 100,50 90,50"
     id="path4451-6"
     inkscape:connector-curvature="0" />
  <text
     xml:space="preserve"
     style="font-size:12px;font-style:normal;font-variant:normal;font-weight:normal;font-stretch:normal;text-align:start;line-height:125%;letter-spacing:0px;word-spacing:0px;writing-mode:lr-tb;text-anchor:start;fill:#000000;fill-opacity:1;stroke:none;font-family:Times New Roman;-inkscape-font-specification:'Times New Roman,'"
     x="97.959183"
     y="312.95917"
     id="text4492"
     sodipodi:linespacing="125%"><tspan
       sodipodi:role="line"
       id="tspan4494"
       x="97.959183"
       y="312.95917">0</tspan></text>
  <text
     xml:space="preserve"
     style="font-size:12px;font-style:normal;font-variant:normal;font-weight:normal;font-stretch:normal;text-align:start;line-height:125%;letter-spacing:0px;word-spacing:0px;writing-mode:lr-tb;text-anchor:start;fill:#000000;fill-opacity:1;stroke:none;font-family:Times New Roman;-inkscape-font-specification:'Times New Roman,'"
     x="126.14285"
     y="313.89795"
     id="text4496"
     sodipodi:linespacing="125%"><tspan
       sodipodi:role="line"
       id="tspan4498"
       x="126.14285"
       y="313.89795">1000</tspan></text>
  <text
     xml:space="preserve"
     style="font-size:12px;font-style:normal;font-variant:normal;font-weight:normal;font-stretch:normal;text-align:start;line-height:125%;letter-spacing:0px;word-spacing:0px;writing-mode:lr-tb;text-anchor:start;fill:#000000;fill-opacity:1;stroke:none;font-family:Times New Roman;-inkscape-font-specification:'Times New Roman,'"
     x="163.14285"
     y="313.89795"
     id="text4496-0"
     sodipodi:linespacing="125%"><tspan
       sodipodi:role="line"
       id="tspan4498-1"
       x="163.14285"
       y="313.89795">2000</tspan></text>
  <text
     xml:space="preserve"
     style="font-size:12px;font-style:normal;font-variant:normal;font-weight:normal;font-stretch:normal;text-align:start;line-height:125%;letter-spacing:0px;word-spacing:0px;writing-mode:lr-tb;text-anchor:start;fill:#000000;fill-opacity:1;stroke:none;font-family:Times New Roman;-inkscape-font-specification:'Times New Roman,'"
     x="203.14285"
     y="313.89795"
     id="text4496-4"
     sodipodi:linespacing="125%"><tspan
       sodipodi:role="line"
       id="tspan4498-9"
       x="203.14285"
       y="313.89795">3000</tspan></text>
  <text
     xml:space="preserve"
     style="font-size:12px;font-style:normal;font-variant:normal;font-weight:normal;font-stretch:normal;text-align:start;line-height:125%;letter-spacing:0px;word-spacing:0px;writing-mode:lr-tb;text-anchor:start;fill:#000000;fill-opacity:1;stroke:none;font-family:Times New Roman;-inkscape-font-specification:'Times New Roman,'"
     x="243.14285"
     y="313.89795"
     id="text4496-8"
     sodipodi:linespacing="125%"><tspan
       sodipodi:role="line"
       id="tspan4498-5"
       x="243.14285"
       y="313.89795">4000</tspan></text>
  <text
     xml:space="preserve"
     style="font-size:12px;font-style:normal;font-variant:normal;font-weight:normal;font-stretch:normal;text-align:start;line-height:125%;letter-spacing:0px;word-spacing:0px;writing-mode:lr-tb;text-anchor:start;fill:#000000;fill-opacity:1;stroke:none;font-family:Times New Roman;-inkscape-font-specification:'Times New Roman,'"
     x="278.14285"
     y="313.89795"
     id="text4496-3"
     sodipodi:linespacing="125%"><tspan
       sodipodi:role="line"
       id="tspan4498-7"
       x="278.14285"
       y="313.89795">5000</tspan></text>
  <text
     xml:space="preserve"
     style="font-size:12px;font-style:normal;font-variant:normal;font-weight:normal;font-stretch:normal;text-align:start;line-height:125%;letter-spacing:0px;word-spacing:0px;writing-mode:lr-tb;text-anchor:start;fill:#000000;fill-opacity:1;stroke:none;font-family:Times New Roman;-inkscape-font-specification:'Times New Roman,'"
     x="318.14285"
     y="313.89795"
     id="text4496-9"
     sodipodi:linespacing="125%"><tspan
       sodipodi:role="line"
       id="tspan4498-2"
       x="318.14285"
       y="313.89795">6000</tspan></text>
  <text
     xml:space="preserve"
     style="font-size:12px;font-style:normal;font-variant:normal;font-weight:normal;font-stretch:normal;text-align:start;line-height:125%;letter-spacing:0px;word-spacing:0px;writing-mode:lr-tb;text-anchor:start;fill:#000000;fill-opacity:1;stroke:none;font-family:Times New Roman;-inkscape-font-specification:'Times New Roman,'"
     x="353.14285"
     y="313.89795"
     id="text4496-6"
     sodipodi:linespacing="125%"><tspan
       sodipodi:role="line"
       id="tspan4498-0"
       x="353.14285"
       y="313.89795">7000</tspan></text>
  <text
     xml:space="preserve"
     style="font-size:12px;font-style:normal;font-variant:normal;font-weight:normal;font-stretch:normal;text-align:start;line-height:125%;letter-spacing:0px;word-spacing:0px;writing-mode:lr-tb;text-anchor:start;fill:#000000;fill-opacity:1;stroke:none;font-family:Times New Roman;-inkscape-font-specification:'Times New Roman,'"
     x="391.14285"
     y="313.89795"
     id="text4496-5"
     sodipodi:linespacing="125%"><tspan
       sodipodi:role="line"
       id="tspan4498-6"
       x="391.14285"
       y="313.89795">8000</tspan></text>
  <text
     xml:space="preserve"
     style="font-size:12px;font-style:normal;font-variant:normal;font-weight:normal;font-stretch:normal;text-align:start;line-height:125%;letter-spacing:0px;word-spacing:0px;writing-mode:lr-tb;text-anchor:start;fill:#000000;fill-opacity:1;stroke:none;font-family:Times New Roman;-inkscape-font-specification:'Times New Roman,'"
     x="53.2449"
     y="229.28571"
     id="text4575"
     sodipodi:linespacing="125%"><tspan
       sodipodi:role="line"
       id="tspan4577"
       x="53.2449"
       y="229.28571">0.0001</tspan></text>
  <text
     xml:space="preserve"
     style="font-size:12px;font-style:normal;font-variant:normal;font-weight:normal;font-stretch:normal;text-align:start;line-height:125%;letter-spacing:0px;word-spacing:0px;writing-mode:lr-tb;text-anchor:start;fill:#000000;fill-opacity:1;stroke:none;font-family:Times New Roman;-inkscape-font-specification:'Times New Roman,'"
     x="52.2449"
     y="174.28571"
     id="text4575-5"
     sodipodi:linespacing="125%"><tspan
       sodipodi:role="line"
       id="tspan4577-5"
       x="52.2449"
       y="174.28571">0.0002</tspan></text>
  <text
     xml:space="preserve"
     style="font-size:12px;font-style:normal;font-variant:normal;font-weight:normal;font-stretch:normal;text-align:start;line-height:125%;letter-spacing:0px;word-spacing:0px;writing-mode:lr-tb;text-anchor:start;fill:#000000;fill-opacity:1;stroke:none;font-family:Times New Roman;-inkscape-font-specification:'Times New Roman,'"
     x="52.2449"
     y="114.28571"
     id="text4575-4"
     sodipodi:linespacing="125%"><tspan
       sodipodi:role="line"
       id="tspan4577-1"
       x="52.2449"
       y="114.28571">0.0003</tspan></text>
  <text
     xml:space="preserve"
     style="font-size:12px;font-style:normal;font-variant:normal;font-weight:normal;font-stretch:normal;text-align:start;line-height:125%;letter-spacing:0px;word-spacing:0px;writing-mode:lr-tb;text-anchor:start;fill:#000000;fill-opacity:1;stroke:none;font-family:Times New Roman;-inkscape-font-specification:'Times New Roman,'"
     x="52.2449"
     y="53.285706"
     id="text4575-8"
     sodipodi:linespacing="125%"><tspan
       sodipodi:role="line"
       id="tspan4577-14"
       x="52.2449"
       y="53.285706">0.0004</tspan></text>
  <text
     xml:space="preserve"
     style="font-size:12px;font-style:normal;font-variant:normal;font-weight:normal;font-stretch:normal;text-align:start;line-height:125%;letter-spacing:0px;word-spacing:0px;writing-mode:lr-tb;text-anchor:start;fill:#000000;fill-opacity:1;stroke:none;font-family:Times New Roman;-inkscape-font-specification:'Times New Roman,'"
     x="429.12244"
     y="289.40817"
     id="text4622"
     sodipodi:linespacing="125%"><tspan
       sodipodi:role="line"
       id="tspan4624"
       x="429.12244"
       y="289.40817">R</tspan></text>
  <path
     style="fill:none;stroke:#000000;stroke-width:1px;stroke-linecap:butt;stroke-linejoin:miter;stroke-opacity:1;marker-end:url(#Arrow1Mend)"
     d="m 90,285 330,0"
     id="path2989"
     inkscape:connector-curvature="0" />
  <text
     xml:space="preserve"
     style="font-size:12px;font-style:normal;font-variant:normal;font-weight:normal;font-stretch:normal;text-align:start;line-height:125%;letter-spacing:0px;word-spacing:0px;writing-mode:lr-tb;text-anchor:start;fill:#000000;fill-opacity:1;stroke:none;font-family:Times New Roman;-inkscape-font-specification:'Times New Roman,'"
     x="220.2366"
     y="46.262333"
     id="text7575"
     sodipodi:linespacing="125%"><tspan
       sodipodi:role="line"
       id="tspan7577"
       x="220.2366"
       y="46.262333">Revenue (RICO)</tspan><tspan
       sodipodi:role="line"
       x="220.2366"
       y="61.262333"
       id="tspan7579">Revenue (Monte Carlo: 100,000 runs)</tspan></text>
  <path
     style="fill:none;stroke:#ff0000;stroke-width:2;stroke-linecap:butt;stroke-linejoin:miter;stroke-opacity:1;stroke-miterlimit:4;stroke-dasharray:none"
     d="m 410,40 30,0"
     id="path7581"
     inkscape:connector-curvature="0"
     sodipodi:nodetypes="cc" />
  <path
     style="fill:none;stroke:#00ff00;stroke-width:2;stroke-linecap:butt;stroke-linejoin:miter;stroke-opacity:1;stroke-miterlimit:4;stroke-dasharray:none"
     d="m 410,60 30,0"
     id="path7583"
     inkscape:connector-curvature="0" />
</svg>
