<?xml version="1.0" encoding="UTF-8" standalone="no"?>
<!-- Created with Inkscape (http://www.inkscape.org/) -->

<svg
   xmlns:dc="http://purl.org/dc/elements/1.1/"
   xmlns:cc="http://creativecommons.org/ns#"
   xmlns:rdf="http://www.w3.org/1999/02/22-rdf-syntax-ns#"
   xmlns:svg="http://www.w3.org/2000/svg"
   xmlns="http://www.w3.org/2000/svg"
   xmlns:sodipodi="http://sodipodi.sourceforge.net/DTD/sodipodi-0.dtd"
   xmlns:inkscape="http://www.inkscape.org/namespaces/inkscape"
   id="svg2"
   version="1.1"
   inkscape:version="0.48.3.1 r9886"
   width="765"
   height="990"
   sodipodi:docname="ABC.svg">
  <metadata
     id="metadata8">
    <rdf:RDF>
      <cc:Work
         rdf:about="">
        <dc:format>image/svg+xml</dc:format>
        <dc:type
           rdf:resource="http://purl.org/dc/dcmitype/StillImage" />
        <dc:title></dc:title>
      </cc:Work>
    </rdf:RDF>
  </metadata>
  <defs
     id="defs6">
    <marker
       inkscape:stockid="Arrow1Mend"
       orient="auto"
       refY="0.0"
       refX="0.0"
       id="Arrow1Mend"
       style="overflow:visible;">
      <path
         id="path3774"
         d="M 0.0,0.0 L 5.0,-5.0 L -12.5,0.0 L 5.0,5.0 L 0.0,0.0 z "
         style="fill-rule:evenodd;stroke:#000000;stroke-width:1.0pt;"
         transform="scale(0.4) rotate(180) translate(10,0)" />
    </marker>
  </defs>
  <sodipodi:namedview
     pagecolor="#ffffff"
     bordercolor="#666666"
     borderopacity="1"
     objecttolerance="10"
     gridtolerance="10"
     guidetolerance="10"
     inkscape:pageopacity="0"
     inkscape:pageshadow="2"
     inkscape:window-width="1301"
     inkscape:window-height="744"
     id="namedview4"
     showgrid="true"
     inkscape:zoom="1.4294227"
     inkscape:cx="255.58424"
     inkscape:cy="832.86658"
     inkscape:window-x="65"
     inkscape:window-y="24"
     inkscape:window-maximized="1"
     inkscape:current-layer="svg2">
    <inkscape:grid
       type="xygrid"
       id="grid2987"
       empspacing="5"
       visible="true"
       enabled="true"
       snapvisiblegridlinesonly="true" />
  </sodipodi:namedview>
  <path
     style="fill:none;stroke:#00ff00;stroke-width:0.62946062999999997px;stroke-linecap:butt;stroke-linejoin:miter;stroke-opacity:1"
     d="m 114,283.99999 0,-1.30276 1.23419,0.0686 0.0686,-1.8513 1.78273,0 0.0686,-4.79962 0.47996,-0.0686 0.13713,1.64558 1.30276,-0.0686 0.0686,-16.45588 0.54853,0.13713 0.0686,2.60551 1.37133,0.13714 -0.0686,8.5022 0.4114,-0.0686 0.2057,-10.42205 1.64558,-0.0686 0.13714,-12.47904 0.54853,0 0,-8.29649 1.23418,0 0.27427,-16.11305 0.34284,0 0.0685,4.18253 1.23419,0.0686 0.13714,9.11929 0.54852,-0.0686 -0.0686,-19.12995 1.23419,0 0,-16.18161 0.68566,0 0,-12.82187 1.23419,0 0,11.10771 0.75423,0 0,-2.26268 1.09705,0 0,-2.60551 0.75424,0 0,-23.31249 0.46494,0.12459 0,-9.44958 1.31777,0 0,3.97684 0.75423,0 0,-5.27959 1.30276,0 0.33577,-0.58159 0,-27.05057 1.58408,0 0,13.91893 0.61004,0.16346 0,-40.00038 1.17267,0 0,46.48783 0.61711,0 0,-26.26082 1.16562,0 0,-10.01067 0.82279,0 0,-29.551992 1.43989,0 0,-1.919861 0.27304,0.07318 0,32.427183 0.82402,0 0,-7.81654 1.30276,0 0,-14.056056 0.54852,0 0,-31.540426 1.50845,0 0,22.763963 0.54608,0.146315 0,-56.781943 0.96239,0 0,24.683802 1.20293,-0.322325 0,-9.962589 0.84826,0.227292 0,20.411115 0.74339,0.19919 0,1.789229 1.31938,0 0,19.267083 0.21366,0.123347 0,-41.948699 1.5005,0 0,5.005331 0.40097,0.107487 0,9.286126 0.68374,0.183206 0,40.682202 1.38367,0 -0.2057,-43.196658 0.75423,-0.06861 -0.0686,-2.056987 1.64558,-0.06861 -0.0686,-1.714145 0.34283,0.274263 0,7.679401 1.37133,0 0,-41.82534 0.40098,0.107486 0,28.484641 1.51887,0 0,-5.828131 0.82278,0 0,8.296507 0.89137,0 0,-0.891357 0.75423,0 0,-11.99907 1.43989,0 0,20.981228 1.02849,0 0,-5.965246 1.43988,0 0,-33.117445 0.40099,0.107486 0,30.404491 1.4503,0 0,25.712296 0.44905,0.259259 0,15.648091 1.53937,0 0,-50.807509 1.64559,0 0,27.289326 0.61709,0 0,-3.634017 1.16562,0 0,6.170962 0.75514,0.20233 0,-17.618131 1.20209,0.322102 0,4.066124 0.63915,0.171265 0,18.410166 0.76337,0 0,-12.204775 1.30275,0 0,-0.822799 0.6171,0 0,-29.963397 1.02849,0 0,42.579572 0.41813,0.11203 0,-24.041613 1.84455,0 0,-4.2511 0.54853,0 0,20.638407 1.2342,0 0,8.570769 0.47995,0 0,-23.586751 1.37133,0 0,49.641879 0.54854,0 0,-29.552008 1.30275,0 0,12.959006 0.46494,-0.124584 0,-14.617136 1.93487,0 0,45.253652 0.73799,0.19775 0,-8.97421 1.1133,0 0,-7.67941 0.61708,0 0,6.30809 1.01103,0.2709 0,5.9686 1.1831,0 0,-52.65879 1.16563,0 0,11.107713 0.27303,0.07318 0,-2.472976 1.50968,0 0,-9.256432 0.54853,0 0,45.665055 1.50846,0 0,-0.47997 0.68566,0 0,14.33033 0,-14.46746 1.85128,0 0,-3.56543 0.27427,0 0,14.46745 1.50846,0 0,10.49061 0.46494,-0.12458 0,-23.59929 1.38634,0 0,-9.325006 0.54606,0.146326 0,4.72187 1.23665,0 0,39.63123 0.46496,0.12458 0,-8.35252 1.2492,0 0,2.53696 0.75423,0 0,23.99814 1.13897,0.30519 0,-7.23037 0.91802,0 0,-17.48436 0.337,0.0903 0,10.33175 1.30859,0 0,-11.10771 1.23418,0 0,20.91267 0.75422,0 0,-1.78273 0.80196,0.2149 0,-19.48198 1.04934,0 0,16.79871 0.68566,0 0,-13.7818 1.30276,0 0,18.30716 0.54606,-0.14631 0,-9.31581 1.30522,0 0,37.36854 0.62718,-0.16806 0,-8.6084 1.15554,0 0,17.4158 0.82279,0 0,-4.18254 1.16563,0 0,17.2101 0.68565,0 0,-21.73547 0.8191,-0.21947 0,-20.62463 1.10076,0 0,47.24207 0.73798,-0.19775 0,0.8834 1.18186,0 0,-11.3134 0.47997,0 0,-5.00534 1.43989,0 0,7.13089 0.67402,-0.18061 0,-5.85321 1.17727,0 0.19774,0.73799 0.42961,0.1151 0,27.05333 1.4982,0 0,-24.20385 0,11.31341 1.64559,0 0,-13.5761 0.61709,0 0,15.01598 0.62719,0.16806 0,9.15694 1.15553,0 0,-11.10771 0.47996,0 0,14.33032 1.4399,0 0,11.31342 0.61708,0 0,-3.42832 1.22009,0.32693 0,9.27234 0.6312,0 0,-2.46839 1.23419,0 0,-22.48969 0.46495,0.12458 0,11.6688 1.72916,0 0,9.94209 0.3462,0.19987 0,4.32549 1.32775,0.35578 0,1.08412 0.51961,-0.13923 0,-5.07181 1.57759,0 0,-4.73106 0.26507,0.15305 0,9.51478 0.90056,0 0,-7.26801 1.02848,0 0,7.19945 0.69115,0.18518 0,3.17455 1.22871,0 0,5.62242 0.80195,-0.21488 0,-4.79044 1.25503,0 0,13.02757 0.5632,0.1509 0,-21.13214 1.21952,0 0,4.31967 0.34619,0.19987 0,3.77696 1.64222,0 0,1.71415 0.54854,0 0,5.62242 0.61709,0 0,1.23419 1.37133,0 0,2.33125 0.41138,0 0,-16.73014 1.50847,0 0,10.42205 0.75423,0 0,2.46839 0.9299,0.24917 0,7.4988 0.63805,0.17097 0,7.9884 1.24325,0 0,-33.8031 0.6171,0 0,22.35256 1.22008,0.32692 0,15.58043 0.75115,-0.20128 0,-23.72831 1.31994,0 0,15.56451 0.6171,0 0,-14.33032 1.2342,0 0,-0.75422 0.62717,0.16805 0,13.54518 0.60701,0 0,-5.4853 1.30276,0 0,12.68474 1.30276,0 0,8.0908 0.46495,0.12459 0,-21.10583 0.4961,0.13293 0,18.31137 1.3702,0 0,-19.95276 0.61709,0 0,11.17628 1.16563,0 0,-4.73105 0.86593,-0.23203 0,-4.97901 1.19105,0 0,7.33658 0.89135,0 0,-4.31967 0.46496,0.1246 0,12.56015 1.18063,0 0,-10.14779 0.53016,0.30608 0,9.08748 1.32112,0 0,-2.33125 0.54854,0 0,-8.36507 1.30276,0 0,4.52536 0.75422,0 0,3.22261 1.23419,0 0,4.8682 0.6171,0 0,-4.31967 1.37132,0 0,-18.58142 0.54853,0 0,21.0498 1.23419,0 0,-2.53695 0.54852,0 0,-4.93675 0.61711,0 0,3.15403 1.43989,0 0,-2.46838 0.68565,0 0,9.325 1.23419,0 0,-3.15404 0.47997,0 0,1.23419 1.30275,0 0,-2.53695 0.68567,0 0,-3.90827 1.30275,0 0,-0.68566 0.4821,0.12917 0,10.43001 1.43775,0 0,-5.00532 0.55986,0.32323 0,5.09349 0.60576,0 0,-5.75955 1.37133,0 0,-0.54853 0.54853,0 -0.16805,0.62718 1.4902,-0.3993 0,-5.98744 1.2148,0 0,13.85036 0.46495,0.12459 0.12873,0.48041 0.29791,0.0799 0,-3.01606 2.12532,0 0,1.37132 1.85128,0 0,-7.40515 1.39486,0.37375 0,1.20328 0.66213,0 0,7.33657 0.61709,0 0.50596,-0.87635 0.59918,0.16055 0,-1.20405 1.50038,0 0,-14.81029 0.39761,0.22957 0,16.6377 0.47782,0.12804 0,-1.36223 1.38725,0 0.30608,0.53016 0.50383,0.135 0,-1.96792 1.45277,0 0,-2.46837 0.27304,0.0732 0,4.31508 1.16685,0 -0.49833,1.8598 1.32112,0 0,-4.87671 1.2342,0 0,0.61709 1.16562,0 0,2.39982 1.30276,0 0.16345,-0.61005 0.65933,0 0,-4.53242 1.16563,0 0,1.91985 0.6171,0 0,2.53694 1.23419,0 0,-4.59392 0.91736,0.24581 0,6.95363 0.85881,-0.23011 0.10181,-0.37984 0.58694,-0.15726 0,-1.28977 1.30624,0 0.34036,0.58954 2.12802,0 0,2.29024 1.43989,0 0,-1.50845 0.46495,0.12458 0,-3.96428 1.15297,0.30893 0,4.21642 0.91903,0 0,-2.39981 1.16561,0 0,2.46838 1.8513,0 0,1.16563 1.16562,0 0,-2.67409 1.64558,0 0,0.8228 1.01102,-0.27091 0.2495,0.93115 1.41357,0 0.1744,0.6509 1.05978,0 0.25128,-0.93773 1.87428,0 0,-1.47047 1.26691,-0.33947 0,-5.21438 0.44723,0 0,7.33657 1.8513,0 0,0.68567 3.8397,0 0.29353,0.50841 3.40904,0 0,-0.91981 2.74264,0 0,1.50845 5.41673,0 0.18979,-0.7083 1.4558,0 0,-1.07442 1.30276,0 0,-0.89136 0.95992,0 0,2.26268 1.09706,0 0,-0.82279 1.43989,0 0,-1.30275 1.30275,0 0,2.3998 10.07922,0 0.0903,-0.337 2.03525,0 0,-1.24002 0.27304,0.0732 0,1.0239 3.36097,0 -0.26631,-0.99388 1.22623,0 0.43159,0.74754 1.14543,0"
     id="path6781"
     inkscape:connector-curvature="0"
     sodipodi:nodetypes="cccccccccccccccccccccccccccccccccccccccccccccccccccccccccccccccccccccccccccccccccccccccccccccccccccccccccccccccccccccccccccccccccccccccccccccccccccccccccccccccccccccccccccccccccccccccccccccccccccccccccccccccccccccccccccccccccccccccccccccccccccccccccccccccccccccccccccccccccccccccccccccccccccccccccccccccccccccccccccccccccccccccccccccccccccccccccccccccccccccccccccccccccccccccccccccccccccccccccccccccccccccccccccccccccccccccccccccccccccccccccccccccccccccccccccccccccccccccccccccccccccccccccccccccccccccccccccccccccccccccccccccccccccccccccccccccccccccc" />
  <path
     style="fill:none;stroke:#000000;stroke-width:1px;stroke-linecap:butt;stroke-linejoin:miter;stroke-opacity:1;marker-end:url(#Arrow1Mend)"
     d="M 100,295 100,10"
     id="path2991"
     inkscape:connector-curvature="0"
     sodipodi:nodetypes="cc" />
  <path
     style="fill:none;stroke:#ff0000;stroke-width:2;stroke-linecap:butt;stroke-linejoin:miter;stroke-opacity:1;stroke-miterlimit:4;stroke-dasharray:none"
     d="M 115,285 C 125,250 128.2689,205 133.2689,165 138.2689,125 148,57 165,57 c 10,0 22,18 40,53 18,35 20,90 50,130 30,40 80,45 150,45"
     id="path4387"
     inkscape:connector-curvature="0"
     sodipodi:nodetypes="czczzc" />
  <path
     style="fill:none;stroke:#000000;stroke-width:1px;stroke-linecap:butt;stroke-linejoin:miter;stroke-opacity:1"
     d="m 140,285 0,10"
     id="path4389"
     inkscape:connector-curvature="0" />
  <path
     style="fill:none;stroke:#000000;stroke-width:1px;stroke-linecap:butt;stroke-linejoin:miter;stroke-opacity:1"
     d="m 175,285 0,10"
     id="path4389-9"
     inkscape:connector-curvature="0" />
  <path
     style="fill:none;stroke:#000000;stroke-width:1px;stroke-linecap:butt;stroke-linejoin:miter;stroke-opacity:1"
     d="m 215,285 0,10"
     id="path4389-0"
     inkscape:connector-curvature="0" />
  <path
     style="fill:none;stroke:#000000;stroke-width:1px;stroke-linecap:butt;stroke-linejoin:miter;stroke-opacity:1"
     d="m 255,285 0,10"
     id="path4389-03"
     inkscape:connector-curvature="0" />
  <path
     style="fill:none;stroke:#000000;stroke-width:1px;stroke-linecap:butt;stroke-linejoin:miter;stroke-opacity:1"
     d="m 290,285 0,10"
     id="path4389-1"
     inkscape:connector-curvature="0" />
  <path
     style="fill:none;stroke:#000000;stroke-width:1px;stroke-linecap:butt;stroke-linejoin:miter;stroke-opacity:1"
     d="m 330,285 0,10"
     id="path4389-4"
     inkscape:connector-curvature="0" />
  <path
     style="fill:none;stroke:#000000;stroke-width:1px;stroke-linecap:butt;stroke-linejoin:miter;stroke-opacity:1"
     d="m 365,285 0,10"
     id="path4389-09"
     inkscape:connector-curvature="0" />
  <path
     style="fill:none;stroke:#000000;stroke-width:1px;stroke-linecap:butt;stroke-linejoin:miter;stroke-opacity:1"
     d="m 405,285 0,10"
     id="path4389-3"
     inkscape:connector-curvature="0" />
  <path
     style="fill:none;stroke:#000000;stroke-width:1px;stroke-linecap:butt;stroke-linejoin:miter;stroke-opacity:1"
     d="m 100,225 -10,0"
     id="path4451-7"
     inkscape:connector-curvature="0" />
  <path
     style="fill:none;stroke:#000000;stroke-width:1px;stroke-linecap:butt;stroke-linejoin:miter;stroke-opacity:1"
     d="m 100,170 -10,0"
     id="path4451-0"
     inkscape:connector-curvature="0" />
  <path
     style="fill:none;stroke:#000000;stroke-width:1px;stroke-linecap:butt;stroke-linejoin:miter;stroke-opacity:1"
     d="m 100,110 -10,0"
     id="path4451-1"
     inkscape:connector-curvature="0" />
  <path
     style="fill:none;stroke:#000000;stroke-width:1px;stroke-linecap:butt;stroke-linejoin:miter;stroke-opacity:1"
     d="M 100,50 90,50"
     id="path4451-6"
     inkscape:connector-curvature="0" />
  <text
     xml:space="preserve"
     style="font-size:12px;font-style:normal;font-variant:normal;font-weight:normal;font-stretch:normal;text-align:start;line-height:125%;letter-spacing:0px;word-spacing:0px;writing-mode:lr-tb;text-anchor:start;fill:#000000;fill-opacity:1;stroke:none;font-family:Times New Roman;-inkscape-font-specification:'Times New Roman,'"
     x="97.959183"
     y="312.95917"
     id="text4492"
     sodipodi:linespacing="125%"><tspan
       sodipodi:role="line"
       id="tspan4494"
       x="97.959183"
       y="312.95917">0</tspan></text>
  <text
     xml:space="preserve"
     style="font-size:12px;font-style:normal;font-variant:normal;font-weight:normal;font-stretch:normal;text-align:start;line-height:125%;letter-spacing:0px;word-spacing:0px;writing-mode:lr-tb;text-anchor:start;fill:#000000;fill-opacity:1;stroke:none;font-family:Times New Roman;-inkscape-font-specification:'Times New Roman,'"
     x="126.14285"
     y="313.89795"
     id="text4496"
     sodipodi:linespacing="125%"><tspan
       sodipodi:role="line"
       id="tspan4498"
       x="126.14285"
       y="313.89795">1000</tspan></text>
  <text
     xml:space="preserve"
     style="font-size:12px;font-style:normal;font-variant:normal;font-weight:normal;font-stretch:normal;text-align:start;line-height:125%;letter-spacing:0px;word-spacing:0px;writing-mode:lr-tb;text-anchor:start;fill:#000000;fill-opacity:1;stroke:none;font-family:Times New Roman;-inkscape-font-specification:'Times New Roman,'"
     x="163.14285"
     y="313.89795"
     id="text4496-0"
     sodipodi:linespacing="125%"><tspan
       sodipodi:role="line"
       id="tspan4498-1"
       x="163.14285"
       y="313.89795">2000</tspan></text>
  <text
     xml:space="preserve"
     style="font-size:12px;font-style:normal;font-variant:normal;font-weight:normal;font-stretch:normal;text-align:start;line-height:125%;letter-spacing:0px;word-spacing:0px;writing-mode:lr-tb;text-anchor:start;fill:#000000;fill-opacity:1;stroke:none;font-family:Times New Roman;-inkscape-font-specification:'Times New Roman,'"
     x="203.14285"
     y="313.89795"
     id="text4496-4"
     sodipodi:linespacing="125%"><tspan
       sodipodi:role="line"
       id="tspan4498-9"
       x="203.14285"
       y="313.89795">3000</tspan></text>
  <text
     xml:space="preserve"
     style="font-size:12px;font-style:normal;font-variant:normal;font-weight:normal;font-stretch:normal;text-align:start;line-height:125%;letter-spacing:0px;word-spacing:0px;writing-mode:lr-tb;text-anchor:start;fill:#000000;fill-opacity:1;stroke:none;font-family:Times New Roman;-inkscape-font-specification:'Times New Roman,'"
     x="243.14285"
     y="313.89795"
     id="text4496-8"
     sodipodi:linespacing="125%"><tspan
       sodipodi:role="line"
       id="tspan4498-5"
       x="243.14285"
       y="313.89795">4000</tspan></text>
  <text
     xml:space="preserve"
     style="font-size:12px;font-style:normal;font-variant:normal;font-weight:normal;font-stretch:normal;text-align:start;line-height:125%;letter-spacing:0px;word-spacing:0px;writing-mode:lr-tb;text-anchor:start;fill:#000000;fill-opacity:1;stroke:none;font-family:Times New Roman;-inkscape-font-specification:'Times New Roman,'"
     x="278.14285"
     y="313.89795"
     id="text4496-3"
     sodipodi:linespacing="125%"><tspan
       sodipodi:role="line"
       id="tspan4498-7"
       x="278.14285"
       y="313.89795">5000</tspan></text>
  <text
     xml:space="preserve"
     style="font-size:12px;font-style:normal;font-variant:normal;font-weight:normal;font-stretch:normal;text-align:start;line-height:125%;letter-spacing:0px;word-spacing:0px;writing-mode:lr-tb;text-anchor:start;fill:#000000;fill-opacity:1;stroke:none;font-family:Times New Roman;-inkscape-font-specification:'Times New Roman,'"
     x="318.14285"
     y="313.89795"
     id="text4496-9"
     sodipodi:linespacing="125%"><tspan
       sodipodi:role="line"
       id="tspan4498-2"
       x="318.14285"
       y="313.89795">6000</tspan></text>
  <text
     xml:space="preserve"
     style="font-size:12px;font-style:normal;font-variant:normal;font-weight:normal;font-stretch:normal;text-align:start;line-height:125%;letter-spacing:0px;word-spacing:0px;writing-mode:lr-tb;text-anchor:start;fill:#000000;fill-opacity:1;stroke:none;font-family:Times New Roman;-inkscape-font-specification:'Times New Roman,'"
     x="353.14285"
     y="313.89795"
     id="text4496-6"
     sodipodi:linespacing="125%"><tspan
       sodipodi:role="line"
       id="tspan4498-0"
       x="353.14285"
       y="313.89795">7000</tspan></text>
  <text
     xml:space="preserve"
     style="font-size:12px;font-style:normal;font-variant:normal;font-weight:normal;font-stretch:normal;text-align:start;line-height:125%;letter-spacing:0px;word-spacing:0px;writing-mode:lr-tb;text-anchor:start;fill:#000000;fill-opacity:1;stroke:none;font-family:Times New Roman;-inkscape-font-specification:'Times New Roman,'"
     x="391.14285"
     y="313.89795"
     id="text4496-5"
     sodipodi:linespacing="125%"><tspan
       sodipodi:role="line"
       id="tspan4498-6"
       x="391.14285"
       y="313.89795">8000</tspan></text>
  <text
     xml:space="preserve"
     style="font-size:12px;font-style:normal;font-variant:normal;font-weight:normal;font-stretch:normal;text-align:start;line-height:125%;letter-spacing:0px;word-spacing:0px;writing-mode:lr-tb;text-anchor:start;fill:#000000;fill-opacity:1;stroke:none;font-family:Times New Roman;-inkscape-font-specification:'Times New Roman,'"
     x="53.2449"
     y="229.28571"
     id="text4575"
     sodipodi:linespacing="125%"><tspan
       sodipodi:role="line"
       id="tspan4577"
       x="53.2449"
       y="229.28571">0.0001</tspan></text>
  <text
     xml:space="preserve"
     style="font-size:12px;font-style:normal;font-variant:normal;font-weight:normal;font-stretch:normal;text-align:start;line-height:125%;letter-spacing:0px;word-spacing:0px;writing-mode:lr-tb;text-anchor:start;fill:#000000;fill-opacity:1;stroke:none;font-family:Times New Roman;-inkscape-font-specification:'Times New Roman,'"
     x="52.2449"
     y="174.28571"
     id="text4575-5"
     sodipodi:linespacing="125%"><tspan
       sodipodi:role="line"
       id="tspan4577-5"
       x="52.2449"
       y="174.28571">0.0002</tspan></text>
  <text
     xml:space="preserve"
     style="font-size:12px;font-style:normal;font-variant:normal;font-weight:normal;font-stretch:normal;text-align:start;line-height:125%;letter-spacing:0px;word-spacing:0px;writing-mode:lr-tb;text-anchor:start;fill:#000000;fill-opacity:1;stroke:none;font-family:Times New Roman;-inkscape-font-specification:'Times New Roman,'"
     x="52.2449"
     y="114.28571"
     id="text4575-4"
     sodipodi:linespacing="125%"><tspan
       sodipodi:role="line"
       id="tspan4577-1"
       x="52.2449"
       y="114.28571">0.0003</tspan></text>
  <text
     xml:space="preserve"
     style="font-size:12px;font-style:normal;font-variant:normal;font-weight:normal;font-stretch:normal;text-align:start;line-height:125%;letter-spacing:0px;word-spacing:0px;writing-mode:lr-tb;text-anchor:start;fill:#000000;fill-opacity:1;stroke:none;font-family:Times New Roman;-inkscape-font-specification:'Times New Roman,'"
     x="52.2449"
     y="53.285706"
     id="text4575-8"
     sodipodi:linespacing="125%"><tspan
       sodipodi:role="line"
       id="tspan4577-14"
       x="52.2449"
       y="53.285706">0.0004</tspan></text>
  <text
     xml:space="preserve"
     style="font-size:12px;font-style:normal;font-variant:normal;font-weight:normal;font-stretch:normal;text-align:start;line-height:125%;letter-spacing:0px;word-spacing:0px;writing-mode:lr-tb;text-anchor:start;fill:#000000;fill-opacity:1;stroke:none;font-family:Times New Roman;-inkscape-font-specification:'Times New Roman,'"
     x="429.12244"
     y="289.40817"
     id="text4622"
     sodipodi:linespacing="125%"><tspan
       sodipodi:role="line"
       id="tspan4624"
       x="429.12244"
       y="289.40817">R</tspan></text>
  <path
     style="fill:none;stroke:#000000;stroke-width:1px;stroke-linecap:butt;stroke-linejoin:miter;stroke-opacity:1;marker-end:url(#Arrow1Mend)"
     d="m 90,285 330,0"
     id="path2989"
     inkscape:connector-curvature="0" />
  <text
     xml:space="preserve"
     style="font-size:12px;font-style:normal;font-variant:normal;font-weight:normal;font-stretch:normal;text-align:start;line-height:125%;letter-spacing:0px;word-spacing:0px;writing-mode:lr-tb;text-anchor:start;fill:#000000;fill-opacity:1;stroke:none;font-family:Times New Roman;-inkscape-font-specification:'Times New Roman,'"
     x="226.2366"
     y="46.262333"
     id="text7575"
     sodipodi:linespacing="125%"><tspan
       sodipodi:role="line"
       id="tspan7577"
       x="226.2366"
       y="46.262333">Revenue (RICO)</tspan><tspan
       sodipodi:role="line"
       x="226.2366"
       y="61.262333"
       id="tspan7579">Revenue (Monte Carlo: 10,000 runs)</tspan></text>
  <path
     style="fill:none;stroke:#ff0000;stroke-width:2;stroke-linecap:butt;stroke-linejoin:miter;stroke-opacity:1;stroke-miterlimit:4;stroke-dasharray:none"
     d="m 410,40 30,0"
     id="path7581"
     inkscape:connector-curvature="0"
     sodipodi:nodetypes="cc" />
  <path
     style="fill:none;stroke:#00ff00;stroke-width:2;stroke-linecap:butt;stroke-linejoin:miter;stroke-opacity:1;stroke-miterlimit:4;stroke-dasharray:none"
     d="m 410,60 30,0"
     id="path7583"
     inkscape:connector-curvature="0" />
</svg>
