<?xml version="1.0" encoding="UTF-8" standalone="no"?>
<!-- Created with Inkscape (http://www.inkscape.org/) -->

<svg
   xmlns:dc="http://purl.org/dc/elements/1.1/"
   xmlns:cc="http://creativecommons.org/ns#"
   xmlns:rdf="http://www.w3.org/1999/02/22-rdf-syntax-ns#"
   xmlns:svg="http://www.w3.org/2000/svg"
   xmlns="http://www.w3.org/2000/svg"
   xmlns:sodipodi="http://sodipodi.sourceforge.net/DTD/sodipodi-0.dtd"
   xmlns:inkscape="http://www.inkscape.org/namespaces/inkscape"
   id="svg2"
   version="1.1"
   inkscape:version="0.48.3.1 r9886"
   width="640"
   height="480"
   sodipodi:docname="TC_Revenue_1K.svg">
  <metadata
     id="metadata8">
    <rdf:RDF>
      <cc:Work
         rdf:about="">
        <dc:format>image/svg+xml</dc:format>
        <dc:type
           rdf:resource="http://purl.org/dc/dcmitype/StillImage" />
        <dc:title></dc:title>
      </cc:Work>
    </rdf:RDF>
  </metadata>
  <defs
     id="defs6" />
  <sodipodi:namedview
     pagecolor="#ffffff"
     bordercolor="#666666"
     borderopacity="1"
     objecttolerance="10"
     gridtolerance="10"
     guidetolerance="10"
     inkscape:pageopacity="0"
     inkscape:pageshadow="2"
     inkscape:window-width="1301"
     inkscape:window-height="744"
     id="namedview4"
     showgrid="false"
     inkscape:zoom="1.24375"
     inkscape:cx="320"
     inkscape:cy="240"
     inkscape:window-x="65"
     inkscape:window-y="24"
     inkscape:window-maximized="1"
     inkscape:current-layer="svg2" />
  <path
     style="fill:none;stroke:#000000;stroke-width:1px;stroke-linecap:butt;stroke-linejoin:miter;stroke-opacity:1"
     d="m 141.15468,440.95721 0,-41.74574 0.93584,0.5403 0,17.77977 3.26877,0 0,-2.70296 1.47614,-0.39553 0,-16.4229 1.21972,0.32683 0,3.87778 2.67869,0.71775 1.37292,2.37797 0,-36.73258 1.06109,0 0,7.80855 1.74162,1.00553 0,-22.62922 1.88774,0.50582 0,27.12446 1.73264,0.46426 0,-71.04161 0,81.98985 0.96878,0.55933 0,-17.67809 2.07843,0 0,-64.87109 1.19593,0.32045 0,52.23715 0.60335,-0.60335 0,-87.99374 1.19844,0.32112 0,98.78749 1.48134,0.39692 0,-99.50553 -0.32163,-63.10141 0.68851,-0.11558 -0.0536,37.08836 2.12371,0.56905 0,60.69809 1.28478,0.74176 0,-135.88986 1.11015,0.29746 0.42884,27.95477 1.5534,0.11667 -0.80407,-163.924546 -0.0536,65.418136 3.39061,-0.0536 0.58966,165.39544 0,85.59379 0.90099,0 0,-68.47504 1.16108,-0.67035 0,-131.77479 1.51368,-0.40558 0,-118.825075 0.62886,0 0,216.837625 0.93583,0.5403 0,-217.978583 0,19.521393 2.36779,0 0,-31.834887 0,59.765494 0.90099,0 0.47061,1.756348 1.05312,0.608022 -0.32163,27.915263 0.91927,0.0483 0.32163,54.36488 0.56029,0 0,66.37273 1.47614,0.39553 0,-210.625908 0.31308,0.313083 0,142.643575 0.30671,0.30671 0,-26.73567 1.55716,0.41724 0,9.19329 1.93001,1.11429 0,119.61802 0,-6.00659 1.25344,-0.72367 -0.64326,-140.52722 1.49149,0.0979 -0.21442,141.45331 0,-241.464608 1.53952,0 0,72.379317 1.19593,0.320448 0,173.570113 0.93987,0.54264 0,-246.211859 0.86749,0 0.5457,2.036558 0.98343,0.26351 0,83.894391 1.54152,-0.013 -0.0536,-48.339951 1.74352,0.467177 0,160.809554 1.23764,0.33163 0,-200.651146 1.76417,0.472708 0,3.131242 1.54784,0 0,86.194456 1.55121,0.41565 0,12.4985 0,-65.772075 1.75241,0 0,62.768785 0,-100.009595 1.51637,0.875478 0,84.117657 1.19395,-1.19395 0,-83.198527 1.74948,0.468771 0,86.927006 0,-87.696106 1.59333,0.426931 0,67.747779 1.75542,0 0,-68.475039 -0.24536,0.915715 0,188.89229 0.53931,0.31137 0,-91.3111 1.48209,-0.39712 0,-98.411155 0.34166,0.591771 0,96.414534 1.46177,0.39168 0,-42.137428 0.91323,0.913227 0.1037,230.536821 1.00453,0.13308 -0.51851,-286.243027 2.05818,0.551489 0,50.204132 1.53893,-0.412354 0,40.0558 0.61567,0.61566 0,93.98801 2.54044,0.0511 -0.4148,158.82305 1.02494,0.20617 0.51851,-276.809285 0.54294,0.313468 0,43.534587 1.203,0.32234 0,139.93135 0.58497,0.33773 0,-251.713197 2.42422,0 0,167.883977 0.91572,0.24536 0,-168.129337 0,69.676355 2.02281,-0.542012 0,-69.134343 3.06805,0 0,38.742456 0.58054,0.335175 0,-38.777302 1.32942,0.239621 0,24.676922 0.85239,-0.18463 0.2074,172.283985 1.23486,0 0,-7.80855 0.94004,0.4148 0.93331,-190.129879 0.82961,303.081909 1.03701,0.0337 -0.2074,-132.70372 1.84246,-0.01 0,-158.481691 1.37763,0.119604 -0.41481,120.519767 1.49317,-0.20271 -0.1037,120.72762 0.99151,-0.26568 0,-22.85966 1.28416,0.74141 0,-15.15721 1.31723,0.7605 0,-135.30794 0,69.37602 1.59393,0 0,-98.20762 2.10231,0 -0.2074,-9.081251 1.19592,0.0093 0.2074,-42.5847 1.28886,0.103701 0.51851,78.882857 -0.51851,-78.66468 1.80963,0.123225 0,78.541455 2.0125,0 0,-78.986558 0,38.442127 1.80197,0 0,118.329671 1.55122,-0.41565 0,-46.73602 1.78518,0.47834 0,-4.38262 0,197.91689 1.16534,0.31225 0,-59.47709 1.03701,34.5163 1.36882,0 -0.2074,29.58983 0.81202,-0.0657 0.3111,-38.81274 0.94388,0.0229 0.51851,-264.012244 1.5741,0.421778 0.51851,131.433476 1.22401,-0.0313 0.0115,119.8518 1.07497,0.50091 0.1037,41.17345 0.93331,-29.31778 0.13307,49.73343 1.65922,0.39999 0,-320.773045 2.70297,0 0,144.758635 0,-121.032635 0.93583,0.540304 0,39.403469 3.5691,0 0,96.705972 0,-16.5181 0,-113.824733 0.87633,-0.08418 0.4148,79.07073 0.51318,0.29629 0.1037,107.48954 1.05563,0.26398 0.1037,84.89751 0.28599,-3.50056 1.47744,0.0773 0.1037,10.04798 1.00467,0.0379 0,-5.4007 1.86264,0.41082 0,-30.1434 1.18233,0.0604 0,-21.56964 0.92675,-0.3111 -0.0652,-1.91526 1.02675,0 -0.1037,-77.83626 2.12217,-0.0704 0.1037,-26.4946 0.93498,0.19663 -0.4148,58.66787 1.24037,0.2074 0.1037,-22.51458 1.97032,-0.21885 0.30938,-13.69111 0.82788,-0.003 0.51851,69.85658 0.49908,0.86443 0,92.83825 2.05257,0.13518 0,-26.97894 1.56717,0.18472 -0.1037,61.79755 0.4148,-330.050929 1.93821,-0.175002 0.62221,167.147221 0.353,0 0,-64.27044 1.19592,0.32045 0,85.57368 0.60605,0 0,50.45529 1.47614,0.39553 0,3.50875 1.18021,0.6814 0,-46.03109 0.32364,0.32363 0,53.13495 1.22023,-0.0695 0,5.08219 0.95094,-0.0414 0.2074,4.12076 1.1966,-0.17235 -0.2074,32.02879 1.17781,-0.0191 -0.41481,12.13598 1.06527,-0.0182 0.2074,-10.40038 0.91098,0.24265 -0.3111,-100.55257 1.76154,1.01703 0.1037,67.68696 -0.1037,-34.7668 1.56865,0 0,-115.32638 0.78794,0.0241 -0.2074,221.61882 1.21469,0.32547 0,-4.83041 0.6074,0 0,-151.66621 2.70296,0 0,155.57049 0.60066,0 0,-22.22436 1.75635,0.47061 0,-56.03149 1.54727,0 0,-66.67307 1.19592,0.32045 0,135.72864 0.87683,1.51871 0,2.98623 0.63021,0 0,-29.13193 1.16108,0.67035 0,13.44512 3.04353,0 0,-16.21777 0.58054,0.33518 0,-96.14017 1.2147,0.32548 0,21.59855 0.922,0.24705 0,54.71318 1.46281,0.39196 0,54.56826 0.62521,0 0,-16.5181 1.83143,0.49073 0,-92.69177 2.37318,0 0,93.70269 0.91572,0.24536 0,-51.00098 0,51.65661 2.0979,-0.56213 0,-143.29552 2.39231,0 0,116.22737 -0.30033,-0.30033 0,30.9339 1.55122,0.41565 0,21.20804 1.78517,0.47834 0,3.42594 1.72577,0.46242 0,5.54416 1.23645,-0.3313 0,-8.37824 2.41093,0 0,-166.082 0.60066,-0.60066 0,117.12836 1.19593,0.32044 0,40.22399 1.52041,-0.87782 0,-21.34654 0.9258,-0.53451 0,-66.13855 0.58156,0.58156 0,52.27636 2.01874,-0.54092 0,-8.16862 0.6329,0.63289 0,9.5783 1.23355,0 0,-11.71284 0,53.45859 1.75634,0.47061 0,7.03761 2.44826,0 0,-19.22106 0.60066,-0.60066 0,28.8316 2.39185,0.64089 0,9.5703 5.41671,0 0,-5.40593 3.90428,0 0,-46.55101 0.33517,0.58054 0,-69.05558 1.44363,0.38682 0,66.28624 1.88904,1.09065 0,35.84984 5.0417,0 0,4.80526 2.03656,0.5457 0.63156,-2.35701 3.03813,0 0.54803,2.04527 3.65658,0 0,11.77921 5.54926,1.48691 0,-32.42081 3.16029,0 0,-1.50165 1.75634,0.47061 0,-25.99858 0.34659,0.60029 0,58.56454 6.30628,0 0.47061,1.75635 5.53597,0 0,-4.45931 5.40593,0 -0.14262,2.79024 5.95037,0.0725 0.0929,-5.06912 2.81288,0.0553 0.0553,-16.93569 2.04697,0 -0.30435,-53.29258 2.03656,0.5457 0,41.80071 1.21039,0.69882 0.083,13.25064 3.95692,-0.0277 0.0277,4.04262 1.89468,0.0279 0.11882,1.83375 2.95454,0.10167 0.083,3.95621 5.90316,0.0277 0.0553,11.95783 16.01606,0.0277 -0.0553,0.984 9.01792,-0.0277 0,-5.89993 10.07687,-0.0277 -0.13834,5.99099 9.06118,-0.0277 0,1.05493 22.06237,-0.0553 -0.10299,-2.00889 9.06557,0 0,-16.95914 1.99566,0 -0.0277,21.94365 23.33462,0.58104 -0.24537,0.91571 31.17927,-0.31505"
     id="path3103"
     inkscape:connector-curvature="0"
     sodipodi:nodetypes="cccccccccccccccccccccccccccccccccccccccccccccccccccccccccccccccccccccccccccccccccccccccccccccccccccccccccccccccccccccccccccccccccccccccccccccccccccccccccccccccccccccccccccccccccccccccccccccccccccccccccccccccccccccccccccccccccccccccccccccccccccccccccccccccccccccccccccccccccccccccccccccccccccccccccccccccccccccccccccccccccccccccccccccccccccccccccccccccccccccccccccccccccccccccccccccccccccccccccccccccccccccccccccccccccccccccccccccccccccccccccccccccccccccc" />
</svg>
