<?xml version="1.0" encoding="UTF-8" standalone="no"?>
<!-- Created with Inkscape (http://www.inkscape.org/) -->

<svg
   xmlns:dc="http://purl.org/dc/elements/1.1/"
   xmlns:cc="http://creativecommons.org/ns#"
   xmlns:rdf="http://www.w3.org/1999/02/22-rdf-syntax-ns#"
   xmlns:svg="http://www.w3.org/2000/svg"
   xmlns="http://www.w3.org/2000/svg"
   xmlns:sodipodi="http://sodipodi.sourceforge.net/DTD/sodipodi-0.dtd"
   xmlns:inkscape="http://www.inkscape.org/namespaces/inkscape"
   id="svg3159"
   version="1.1"
   inkscape:version="0.48.3.1 r9886"
   width="640"
   height="480"
   sodipodi:docname="TC_Revenue_100K.svg">
  <metadata
     id="metadata3165">
    <rdf:RDF>
      <cc:Work
         rdf:about="">
        <dc:format>image/svg+xml</dc:format>
        <dc:type
           rdf:resource="http://purl.org/dc/dcmitype/StillImage" />
        <dc:title></dc:title>
      </cc:Work>
    </rdf:RDF>
  </metadata>
  <defs
     id="defs3163" />
  <sodipodi:namedview
     pagecolor="#ffffff"
     bordercolor="#666666"
     borderopacity="1"
     objecttolerance="10"
     gridtolerance="10"
     guidetolerance="10"
     inkscape:pageopacity="0"
     inkscape:pageshadow="2"
     inkscape:window-width="1301"
     inkscape:window-height="744"
     id="namedview3161"
     showgrid="false"
     inkscape:zoom="1.5692084"
     inkscape:cx="370.07695"
     inkscape:cy="228.71468"
     inkscape:window-x="65"
     inkscape:window-y="24"
     inkscape:window-maximized="1"
     inkscape:current-layer="svg3159" />
  <path
     style="fill:none;stroke:#000000;stroke-width:1px;stroke-linecap:butt;stroke-linejoin:miter;stroke-opacity:1"
     d="m 134.65182,441.00862 -0.0118,-1.55395 0.94262,0 0.0631,1.10412 1.84574,-0.0118 0.0908,-3.93615 1.98782,-0.11436 0,-3.98744 0.91678,-0.0383 0,-2.93167 2.06497,0 -0.0513,-4.96958 2.10219,-0.0513 -0.0513,-8.96879 0.93084,-0.10258 0,-5.91636 2.01964,-0.0896 0,-15.83658 2.12167,0 -0.0513,5.88863 0.93084,0 0.0513,-17.06219 2.01139,0 0,-9.89964 1.93544,-0.0667 0.0513,-7.92412 0.99502,0 0,-21.03785 1.96426,-0.0513 0,-14.96001 1.93654,0 0.10258,-16.89654 0.99391,0.0513 0,6.90611 1.94832,0 0,-30.10923 2.0114,0 0.0513,-15.85134 0.96875,-0.0994 0.10258,-12.14704 1.84734,0 0,-10.93306 1.98878,0.0575 0,-1.94279 0.99296,0 0,-30.03437 2.09068,0.0161 -0.0513,5.0283 1.99934,-0.0513 0,-19.96492 1.06145,0.0142 -0.0513,-7.01113 1.98337,-0.0513 0,-37.00355 2.07862,0 -0.0513,5.13106 1.02004,-0.0995 0,-2.04986 1.90187,0.0453 0.0883,1.0914 1.84504,0 0.10258,-21.0545 1.01935,0.0643 -0.0513,10.92005 2.04333,-0.0304 0,-6.92698 2.04898,-0.10258 -0.0513,-14.92049 1.02926,0 -0.0513,-19.01052 2.06685,-0.0513 0.0513,26.0705 1.89703,0.0513 0,-43.069624 0.96874,0.259575 0.0513,25.759629 1.95961,-0.0323 0.0513,-28.968657 1.92686,0 0.15387,9.978647 0.91814,-0.0445 0,-1.903787 1.91935,-0.128677 -0.20516,-18.172101 2.19515,0 0.10258,13.279916 0.93084,0.10258 -0.20516,-27.297296 1.98783,0 0,11.09871 2.24661,0.601976 0,15.466305 0.96373,0.02946 0.0513,-19.079481 1.70794,0 0,3.810005 2.31914,0 0,23.167773 0.91677,0.0383 -0.10258,-17.076915 2.49885,0 0,-19.712634 1.65653,0 0,14.411758 0.82826,0 0,-7.785662 2.48478,0 0,-10.767405 1.78294,0.477737 0,22.050987 0.70185,0 0,-7.62001 2.31913,0 0,1.490872 1.82218,0 0,4.803919 0.99391,0 0,13.749147 2.15349,0 0,-16.233933 2.15348,0 0,-5.797833 0.8556,0.229258 -0.0513,38.762124 2.0395,0 -0.0513,-13.86351 2.02318,0.05129 0.0513,0.90312 0.85598,-0.0513 0.0513,6.94561 1.88525,0 0.0513,-1.7785 1.87702,-0.1464 0,-20.781255 1.34523,0 0,16.730895 1.82218,0 0,2.98174 2.09136,0.21141 0,7.03779 0.96524,-0.10258 0,2.86738 1.92475,0.15387 0.10258,-2.98175 2.01556,-0.0513 -0.15387,3.87308 1.23442,0.0513 -0.11345,-0.93099 1.93562,-0.0513 0.10258,-7.09518 1.82218,0 0.10258,10.04172 0.96806,0.013 0.0513,6.05306 1.96239,0 -0.10258,8.90572 1.98879,0.0575 0.15387,-16.02324 0.87859,-0.0513 0.10258,-5.87269 2.02318,0 -0.10258,29.92763 2.02734,-0.0513 0.0513,4.10597 0.95818,-0.0754 -0.10258,-22.9503 4.2006,0 0,27.99526 0.91609,0.0284 0.15387,-2.0003 1.86854,-0.0122 0,13.91109 2.08653,0.0513 -0.0513,-15.87907 0.9544,0 -0.0513,5.88864 1.97605,0.0513 0.15387,8.9175 1.85752,0.0513 0.10258,16.96377 0.94263,0 0.15074,-0.91745 1.88838,-0.0513 0.0513,-20.99995 1.87346,0 0.10258,27.94396 0.9149,0 0.15387,-6.85482 1.79861,0 0.0513,6.94146 2.12576,0.0513 0,3.88486 0.91746,0.0995 0,2.87051 2.16545,0.13145 -0.20516,23.89993 2.02765,-0.007 0.10258,-3.01048 2.85254,0 0.10258,22.97439 1.99523,0.0445 -0.10258,-17.2211 1.01423,0 0.0513,15.30309 2.03939,0.0161 0,12.84169 1.92213,-0.0254 0.0895,-1.88926 0.84001,0.0226 0.0513,-1.98108 1.92992,0.004 0.12516,4.89717 1.99189,0.11505 0.10258,16.04498 0.80358,-0.0513 0.15387,16.93605 1.93269,-0.0272 0.10258,-8.95755 1.97227,0 -0.0513,-5.04443 0.85183,0 0.15387,7.02048 1.98947,0.099 0.0513,5.90404 2.0846,0 0,7.95131 0.90759,0.11681 0.10258,-8.01683 1.76778,0.0121 0.35903,35.11802 1.52902,0 0,-22.03177 0.96874,0.25958 0,18.62479 1.84735,0 0,8.77958 2.40116,-0.64339 0,-4.16053 1.04677,0.28048 0,10.48692 1.9662,0.52685 0,-8.14685 2.20588,0 0,7.45435 0.36974,0.64042 0,12.44612 2.3653,0.63378 0,-8.25379 1.90322,0 0,3.1474 1.9375,-0.51915 0,10.12698 1.05712,0.28326 0,7.00545 2.30626,0 0,-8.94523 0.65964,-0.17675 0,4.15241 2.15645,0 0,10.7674 2.15348,0 0,2.98175 0.99392,0 0,-1.82218 1.82217,0 0,7.62001 2.98174,0 0,-5.63218 1.65653,0 0,10.10479 2.48478,0 0,0.82827 0.96063,0.55461 0,4.2493 1.50489,0.40324 0,9.70156 2.50406,0 0,-4.96957 1.32521,0 0,-4.96957 1.32522,0 0,1.15956 2.48479,0 0,3.81001 0.50508,0.13533 0,9.80381 1.9797,0 0,-1.98783 2.15349,0 0,-7.62001 1.49087,0 0,10.60176 1.82217,0 -0.36974,-0.64042 2.35757,0 0,4.45042 0.96875,-0.25958 0,-2.39086 1.84734,0 0,7.95132 2.31914,0 0,-7.28871 0.49695,0.49696 0,0.99391 2.15348,0 0,5.13523 1.98783,0 -0.36974,0.64041 1.52931,0 0,-3.29085 2.24661,0.60198 0,2.87672 2.72296,0 0,5.13522 1.65652,0 0,2.65044 2.15349,0 0,-2.81609 0.81419,0.21816 0,4.42011 2.10518,0.56408 0,-1.06104 2.54715,0 0,-4.47261 0.51618,0.29801 0,5.99678 2.29991,0 0,4.63826 1.65653,0 0.43632,-1.62838 0.90514,0.24253 0,-4.57763 1.97159,0 0,3.4787 1.65652,0 0,-1.82218 1.31927,0.3535 0,3.62216 2.15943,0 0,1.98783 1.65652,0 0,-3.97566 1.12331,0.30099 0,4.33728 4.05099,0 -0.0667,1.9725 1.03065,0.0261 -0.0697,-1.02095 2.04846,0 0.0741,-0.99517 1.93329,-0.0741 -0.18519,-3.05582 1.1233,0.30099 -0.96062,-0.96063 2.98471,0 -0.82103,1.42207 2.72848,-0.7311 0,5.08436 3.09916,0.037 0.037,5.92848 2.04549,0.0698 -0.0741,-5.02188 0.99543,0.0273 0.0741,-3.83731 1.85458,0 0,1.82218 2.15348,0 -0.037,5.9419 2.98378,0.037 -0.0155,1.00143 2.01894,-0.055 0.01,1.0411 2.91933,0.037 0.1204,-1.95993 1.89834,-0.037 0.14815,-2.96821 0.87579,-0.0374 0,0.9747 1.83327,0 0,3.81 2.2402,0.15315 0.0741,3.10537 0.83447,-0.0258 0.11112,-4.09807 1.94739,0.0741 0.037,2.9447 1.98093,0.0791 -0.11111,-1.09048 1.23073,0.0523 0.037,1.08772 1.72287,0.037 0,-1.15753 2.00534,0.0741 0.14815,4.0652 0.88186,-0.0455 0.037,-2.108 2.08034,0.037 -0.0741,-3.95612 2.00737,-0.037 0.037,6.99444 0.96672,0.007 -0.0355,-1.08188 2.00487,7.6e-4 0,-0.91374 3.07988,0.037 0.0744,-1.04283 1.80247,-0.0111 0.037,3.03972 2.04834,-0.11111 0.009,-1.87622 0.90843,-0.0741 0.0339,-0.93609 1.99096,-0.037 0.0616,1.06668 2.90159,0.036 0.12983,3.93566 1.98957,-0.0973 0,-3.9664 2.92527,0.037 0,4.96957 1.98578,0.0741 0.037,-6.03756 2.07284,0.0289 -0.0741,1.97643 1.04281,-0.0513 -0.1103,1.08564 2.11237,0.037 0,-1.31115 2.93048,0.2144 -0.0499,1.98103 2.07152,0.0741 -0.042,1.93644 3.07831,0 -0.037,-2.05247 2.00737,0.0741 0.037,0.99187 2.04237,-0.037 -0.13238,1.12768 1.03612,0.11784 0.14816,-1.22393 1.80122,0.037 0.037,0.95483 1.96829,0.11112 0.037,0.95892 1.06232,0.0258 0.0692,-2.10435 1.89667,0.17594 0.0284,0.88838 2.10026,-0.037 -0.19912,2.06851 1.09942,0.037 0,-4.07514 2.04032,0 0,1.01346 1.97737,-0.0288 -0.0968,0.97129 1.11116,0.0493 -0.077,1.01287 1.95003,0.024 0.0847,-1.10463 2.05086,0.0109 -0.18894,-0.98807 1.14383,0.004 -0.0741,3.94816 2.06007,0.037 -0.0583,-1.01657 2.01112,0 -0.037,-2.9375 1.0408,-0.03 0,1.03938 2.02844,0 -0.008,-1.03578 1.97488,-0.0278 0,3.01643 1.08989,0.0433 0,-1.01763 2.00656,0 -0.037,1.98578 2.9622,0.037 0,-2.04236 2.10283,-0.0536 0.011,2.01801 2.00799,0 0,-1.94689 1.10409,-0.10267 0,2.49588 6.62907,0 0,-2.31913 5.15273,-0.0741 -0.033,0.99939 2.0208,-0.0741 0.037,1.08002 0.96236,-0.004 c 0,0 0.037,-0.51038 0.037,-1.02484 l 2.01939,0.037 -0.0417,0.97515 2.00516,0.0783 -0.037,-1.01435 5.08962,-0.0741 -0.11112,1.06391 1.06641,0.0496 -0.037,-1.1155 4.06678,-0.0741 -0.0367,1.07987 5.06084,0.0741 -0.0465,-1.03012 4.04173,0.037 -0.0721,0.90105 1.96628,0.0741 0.11111,0.98045 3.86658,0 0.037,-1.95079 1.02891,-0.0741 -0.0741,1.42089"
     id="path3188"
     inkscape:connector-curvature="0"
     sodipodi:nodetypes="cccccccccccccccccccccccccccccccccccccccccccccccccccccccccccccccccccccccccccccccccccccccccccccccccccccccccccccccccccccccccccccccccccccccccccccccccccccccccccccccccccccccccccccccccccccccccccccccccccccccccccccccccccccccccccccccccccccccccccccccccccccccccccccccccccccccccccccccccccccccccccccccccccccccccccccccccccccccccccccccccccccccccccccccccccccccccccccccccccccccccccccccccccccccccccccccccccccccccccccccccccccccccccccccccccccccccccccccccccccccccccccccccccccccccccccccccccccccccccccccccccccccccccccccccccccccccccccccccc" />
</svg>
