<?xml version="1.0" encoding="UTF-8" standalone="no"?>
<!-- Created with Inkscape (http://www.inkscape.org/) -->

<svg
   xmlns:dc="http://purl.org/dc/elements/1.1/"
   xmlns:cc="http://creativecommons.org/ns#"
   xmlns:rdf="http://www.w3.org/1999/02/22-rdf-syntax-ns#"
   xmlns:svg="http://www.w3.org/2000/svg"
   xmlns="http://www.w3.org/2000/svg"
   xmlns:xlink="http://www.w3.org/1999/xlink"
   xmlns:sodipodi="http://sodipodi.sourceforge.net/DTD/sodipodi-0.dtd"
   xmlns:inkscape="http://www.inkscape.org/namespaces/inkscape"
   id="svg2"
   version="1.1"
   inkscape:version="0.48.3.1 r9886"
   width="640"
   height="480"
   sodipodi:docname="TC_Revenue_10K.svg">
  <metadata
     id="metadata8">
    <rdf:RDF>
      <cc:Work
         rdf:about="">
        <dc:format>image/svg+xml</dc:format>
        <dc:type
           rdf:resource="http://purl.org/dc/dcmitype/StillImage" />
        <dc:title></dc:title>
      </cc:Work>
    </rdf:RDF>
  </metadata>
  <defs
     id="defs6" />
  <sodipodi:namedview
     pagecolor="#ffffff"
     bordercolor="#666666"
     borderopacity="1"
     objecttolerance="10"
     gridtolerance="10"
     guidetolerance="10"
     inkscape:pageopacity="0"
     inkscape:pageshadow="2"
     inkscape:window-width="1301"
     inkscape:window-height="744"
     id="namedview4"
     showgrid="false"
     inkscape:zoom="1.24375"
     inkscape:cx="320"
     inkscape:cy="240"
     inkscape:window-x="65"
     inkscape:window-y="24"
     inkscape:window-maximized="1"
     inkscape:current-layer="svg2" />
  <image
     sodipodi:absref="/home/tomf/sandbox/PHoX/papers/Memoir/Images/TC_Revenue_10K.png"
     xlink:href="TC_Revenue_10K.png"
     y="0"
     x="0"
     id="image10"
     height="480"
     width="640" />
  <path
     style="fill:none;stroke:#000000;stroke-width:1px;stroke-linecap:butt;stroke-linejoin:miter;stroke-opacity:1"
     d="m 135.50693,440.45899 0,-2.06964 1.96071,0.10893 0.10893,-2.94107 2.83214,0 0.10893,-7.62499 0.7625,-0.10892 0.21785,2.61428 2.06964,-0.10893 0.10893,-26.14282 0.87143,0.21786 0.10893,4.13928 2.17857,0.21785 -0.10893,13.50713 0.65357,-0.10893 0.32678,-16.55712 2.61429,-0.10893 0.21785,-19.82497 0.87143,0 0,-13.18033 1.96071,0 0.43571,-25.59818 0.54465,0 0.10892,6.64463 1.96072,0.10893 0.21785,14.48748 0.87143,-0.10893 -0.10893,-30.39102 1.96071,0 0,-25.70711 1.08929,0 0,-20.36961 1.96071,0 0,17.6464 1.19821,0 0,-3.59463 1.74285,0 0,-4.13928 1.19822,0 0,-37.03566 0.73865,0.19792 0,-15.01218 2.09349,0 0,6.31785 1.19821,0 0,-8.38749 2.06964,0 0.53343,-0.92394 0,-42.97421 2.51656,0 0,22.11247 0.96915,0.25968 0,-63.54708 1.86299,0 0,73.85345 0.98036,0 0,-41.71957 1.85178,0 0,-15.90355 1.30714,0 0,-46.94814 2.2875,0 0,-3.05 0.43376,0.11623 0,51.51583 1.30909,0 0,-12.41783 2.06964,0 0,-22.33033 0.87143,0 0,-50.107061 2.39642,0 0,36.164231 0.86752,0.23245 0,-90.207312 1.52891,0 0,39.214225 1.91106,-0.512068 0,-15.827192 1.3476,0.361087 0,32.426362 1.18099,0.316445 0,2.842483 2.09605,0 0,30.60888 0.33943,0.19596 0,-66.642289 2.38378,0 0,7.951774 0.63702,0.170689 0,14.752502 1.08622,0.291052 0,64.630272 2.19819,0 -0.32679,-68.62489 1.19821,-0.108928 -0.10893,-3.267852 2.61429,-0.108929 -0.10893,-2.72321 0.54464,0.435714 0,12.199981 2.17857,0 0,-66.446326 0.63702,0.17069 0,45.252454 2.41297,0 0,-9.258914 1.30714,0 0,13.180337 1.41607,0 0,-1.41607 1.19822,0 0,-19.06247 2.28749,0 0,33.332091 1.63393,0 0,-9.476771 2.28749,0 0,-52.612418 0.63703,0.170689 0,48.30245 2.30404,0 0,40.848152 0.71338,0.41187 0,24.85952 2.44554,0 0,-80.715948 2.61429,0 0,43.353508 0.98035,0 0,-5.773209 1.85178,0 0,9.803559 1.19965,0.32144 0,-27.989257 1.90973,0.51171 0,6.459708 1.01538,0.27207 0,29.247529 1.21274,0 0,-19.389258 2.06964,0 0,-1.307141 0.98035,0 0,-47.601712 1.63393,0 0,67.644541 0.66425,0.17798 0,-38.193995 2.93038,0 0,-6.753561 0.87143,0 0,32.787446 1.96071,0 0,13.61605 0.7625,0 0,-37.471367 2.17857,0 0,78.864167 0.87143,0 0,-46.94815 2.06964,0 0,20.58747 0.73865,-0.19792 0,-23.22168 3.07384,0 0,71.89274 1.17241,0.31415 0,-14.25698 1.76866,0 0,-12.19998 0.98035,0 0,10.02141 1.60617,0.43037 0,9.48211 1.87954,0 0,-83.65701 1.85179,0 0,17.6464 0.43375,0.11623 0,-3.92872 2.39838,0 0,-14.705337 0.87143,0 0,72.546317 2.39643,0 0,-0.7625 1.08928,0 0,22.76604 0,-22.9839 2.94107,0 0,-5.66427 0.43571,0 0,22.98389 2.39643,0 0,16.66604 0.73865,-0.19792 0,-37.4913 2.20241,0 0,-14.81427 0.86752,0.23246 0,7.50146 1.96462,0 0,62.96062 0.73865,0.19792 0,-13.26933 1.98456,0 0,4.03035 1.19821,0 0,38.12494 1.80944,0.48484 0,-11.48661 1.45842,0 0,-27.77674 0.53539,0.14346 0,16.41366 2.07889,0 0,-17.6464 1.96071,0 0,33.22316 1.19821,0 0,-2.83214 1.27404,0.34138 0,-30.95026 1.66703,0 0,26.68746 1.08928,0 0,-21.89461 2.06964,0 0,29.08388 0.86752,-0.23245 0,-14.79967 2.07355,0 0,59.36598 0.99638,-0.26698 0,-13.67585 1.83576,0 0,27.66781 1.30714,0 0,-6.64463 1.85178,0 0,27.34103 1.08928,0 0,-34.53031 1.30128,-0.34867 0,-32.76556 1.74872,0 0,75.05167 1.17241,-0.31415 0,1.40343 1.87758,0 0,-17.97318 0.7625,0 0,-7.95178 2.2875,0 0,11.32856 1.07078,-0.28692 0,-9.29878 1.87029,0 0.31414,1.17241 0.6825,0.18287 0,42.97858 2.38014,0 0,-38.45173 0,17.97319 2.61428,0 0,-21.56783 0.98035,0 0,23.85532 0.99639,0.26698 0,14.54729 1.83575,0 0,-17.6464 0.7625,0 0,22.76603 2.2875,0 0,17.97319 0.98035,0 0,-5.44642 1.9383,0.51936 0,14.73061 1.00277,0 0,-3.92142 1.96071,0 0,-35.72851 0.73866,0.19792 0,18.53776 2.74705,0 0,15.79462 0.54998,0.31753 0,6.87174 2.10935,0.5652 0,1.7223 0.82549,-0.22119 0,-8.05737 2.50624,0 0,-7.51606 0.42112,0.24314 0,15.11577 1.43067,0 0,-11.54641 1.63392,0 0,11.43748 1.09801,0.29421 0,5.04328 1.95199,0 0,8.93213 1.27404,-0.34138 0,-7.61039 1.99381,0 0,20.69639 0.89475,0.23975 0,-33.57184 1.93739,0 0,6.86249 0.54998,0.31753 0,6.00032 2.60894,0 0,2.72321 0.87143,0 0,8.93213 0.98035,0 0,1.96071 2.17857,0 0,3.70356 0.65357,0 0,-26.57853 2.39643,0 0,16.55712 1.19821,0 0,3.92142 1.47731,0.39585 0,11.91306 1.01364,0.27161 0,12.69087 1.97511,0 0,-53.7017 0.98036,0 0,35.51066 1.9383,0.51936 0,24.75203 1.19332,-0.31975 0,-37.69626 2.09694,0 0,24.72674 0.98036,0 0,-22.76603 1.96071,0 0,-1.19821 0.99638,0.26697 0,21.51871 0.96433,0 0,-8.71428 2.06964,0 0,20.15176 2.06964,0 0,12.85355 0.73865,0.19792 0,-33.53001 0.78814,0.21118 0,29.09056 2.17678,0 0,-31.69817 0.98035,0 0,17.75533 1.85179,0 0,-7.51606 1.37567,-0.36861 0,-7.90995 1.89218,0 0,11.65534 1.41607,0 0,-6.86249 0.73865,0.19793 0,19.95383 1.87563,0 0,-16.1214 0.84224,0.48626 0,14.43693 2.09882,0 0,-3.70357 0.87143,0 0,-13.28926 2.06964,0 0,7.18927 1.19821,0 0,5.11964 1.96072,0 0,7.73391 0.98035,0 0,-6.86249 2.17857,0 0,-29.51959 0.87143,0 0,33.44101 1.96071,0 0,-4.03035 0.87142,0 0,-7.84284 0.98036,0 0,5.01071 2.2875,0 0,-3.92143 1.08928,0 0,14.81427 1.96071,0 0,-5.01071 0.7625,0 0,1.96071 2.06964,0 0,-4.03035 1.08928,0 0,-6.20892 2.06964,0 0,-1.08928 0.76589,0.20521 0,16.56976 2.28411,0 0,-7.95177 0.88941,0.5135 0,8.09184 0.96237,0 0,-9.14998 2.17857,0 0,-0.87143 0.87143,0 -0.26698,0.99638 2.36743,-0.63435 0,-9.51202 1.9299,0 0,22.00354 0.73865,0.19792 0.2045,0.76322 0.47328,0.12681 0,-4.79152 3.37642,0 0,2.17857 2.94107,0 0,-11.76427 2.21595,0.59377 0,1.91159 1.0519,0 0,11.65534 0.98035,0 0.8038,-1.39223 0.95189,0.25506 0,-1.91283 2.38359,0 0,-23.52853 0.63168,0.3647 0,26.43168 0.75908,0.2034 0,-2.16411 2.20388,0 0.48627,0.84224 0.80041,0.21447 0,-3.12635 2.30796,0 0,-3.92142 0.43376,0.11623 0,6.85519 1.85373,0 -0.79168,2.95461 2.09882,0 0,-7.74746 1.96072,0 0,0.98035 1.85178,0 0,3.8125 2.06964,0 0.25968,-0.96915 1.04746,0 0,-7.20048 1.85178,0 0,3.04999 0.98036,0 0,4.03035 1.96071,0 0,-7.2982 1.45737,0.3905 0,11.04698 1.36437,-0.36558 0.16169,-0.60342 0.93246,-0.24985 0,-2.049 2.07517,0 0.54073,0.93658 3.38069,0 0,3.63841 2.2875,0 0,-2.39642 0.73865,0.19792 0,-6.29791 1.83168,0.4908 0,6.69847 1.46002,0 0,-3.81249 1.85178,0 0,3.92142 2.94107,0 0,1.85178 1.85178,0 0,-4.2482 2.61428,0 0,1.30714 1.60617,-0.43037 0.39637,1.47926 2.24567,0 0.27708,1.03407 1.68363,0 0.39918,-1.48974 2.9776,0 0,-2.33608 2.0127,-0.5393 0,-8.2839 0.71051,0 0,11.65534 2.94107,0 0,1.08929 6.09999,0 0.46633,0.80771 5.41581,0 0,-1.46128 4.35713,0 0,2.39642 8.60534,0 0.30151,-1.12524 2.31278,0 0,-1.7069 2.06964,0 0,-1.41607 1.52499,0 0,3.59464 1.74286,0 0,-1.30714 2.28749,0 0,-2.06964 2.06964,0 0,3.81249 16.01248,0 0.14346,-0.53539 3.23332,0 0,-1.96996 0.43376,0.11623 0,1.62662 5.33945,0 -0.42308,-1.57893 1.94807,0 0.68566,1.18759 1.8197,0"
     id="path6781"
     inkscape:connector-curvature="0"
     sodipodi:nodetypes="cccccccccccccccccccccccccccccccccccccccccccccccccccccccccccccccccccccccccccccccccccccccccccccccccccccccccccccccccccccccccccccccccccccccccccccccccccccccccccccccccccccccccccccccccccccccccccccccccccccccccccccccccccccccccccccccccccccccccccccccccccccccccccccccccccccccccccccccccccccccccccccccccccccccccccccccccccccccccccccccccccccccccccccccccccccccccccccccccccccccccccccccccccccccccccccccccccccccccccccccccccccccccccccccccccccccccccccccccccccccccccccccccccccccccccccccccccccccccccccccccccccccccccccccccccccccccccccccccccccccccccccccccccccccccccccccccccccc" />
</svg>
